<svg id="Capa_1" data-name="Capa 1" xmlns="http://www.w3.org/2000/svg" width="184.5297" height="205.2108" viewBox="0 0 184.5297 205.2108"><defs><style>.cls-1{fill:#fff;}</style></defs><title>STT_Web Assets</title><path class="cls-1" d="M133.5676,203.9821a1.5121,1.5121,0,0,0-.499-2.7756C107.8331,196.26,89.3207,188.521,83.897,182.0038c-1.96-2.3555-1.208-3.3641-.8866-3.7954,4.7146-6.326,18.4029-1.7479,23.2806.55a2.474,2.474,0,0,0,3.1926-3.4837c-.3141-.5387-7.8456-13.22-21.3479-16.4376-7.9229-1.8929-16.1586-.1184-24.47,5.2666-3.729,2.4159-7.296,4.8934-10.7447,7.29-7.7631,5.3943-15.3729,10.68-24.8983,15.4231a2.4242,2.4242,0,0,0-.6159,3.9139l.0375.0363a2.4277,2.4277,0,0,0,2.7582.4373c9.9833-4.9389,17.8118-10.3761,25.5414-15.7471,3.4172-2.3736,6.9493-4.8293,10.6105-7.2,7.12-4.6119,14.0459-6.1678,20.6-4.6156a28.197,28.197,0,0,1,13.0228,7.668c-6.8381-1.77-16.09-2.556-20.9336,3.9427-1.2707,1.7044-2.8254,5.2594,1.0509,9.9172,5.6627,6.8049,23.0513,14.582,47.2645,19.8458a8.4411,8.4411,0,0,0,6.1372-.9892l.0357-.0215Z"/><path class="cls-1" d="M165.5381,156.7639,155.4614,152.72a2.4744,2.4744,0,1,0-1.8433,4.5926l10.0766,4.0442a2.4744,2.4744,0,0,0,1.8433-4.5926Z"/><path class="cls-1" d="M25.9848,105.9048a2.4748,2.4748,0,0,0,.9229-4.7714L3.3963,92.1578A2.4744,2.4744,0,0,0,1.553,96.75l23.5113,8.9756A2.4743,2.4743,0,0,0,25.9848,105.9048Z"/><path class="cls-1" d="M115.1344,67.2423a2.472,2.472,0,0,0,3.218-1.3746l11.0854-29.666a2.4744,2.4744,0,0,0-4.5926-1.8433L113.76,64.0243A2.4759,2.4759,0,0,0,115.1344,67.2423Z"/><path class="cls-1" d="M60.7759,66.5054a2.4737,2.4737,0,1,0,4.5491-1.9448L54.8344,39.5434a2.4737,2.4737,0,0,0-4.5491,1.9448Z"/><path class="cls-1" d="M164.14,107.8153a2.4658,2.4658,0,0,0,.9833-.1188l17.71-5.609a2.4732,2.4732,0,0,0-1.5557-4.6954l-17.71,5.609a2.4744,2.4744,0,0,0,.5724,4.8142Z"/><path class="cls-1" d="M23.7828,148.7021l-13.336,4.4234a2.4737,2.4737,0,1,0,1.5582,4.6956l13.336-4.4234a2.4737,2.4737,0,1,0-1.5582-4.6956Z"/><path class="cls-1" d="M172.0658,127.382l-12.5275-.0966h-.0193a2.4334,2.4334,0,0,0-2.4255,2.4545,2.5165,2.5165,0,0,0,2.5029,2.4944l12.4333.0954h.0181a2.4739,2.4739,0,0,0,.0181-4.9477Z"/><path class="cls-1" d="M21.0057,130.4251a2.4739,2.4739,0,0,0,.0193-4.9477l-10.9947.65H10.011a2.4739,2.4739,0,0,0-.0193,4.9477l10.9947-.65Z"/><path class="cls-1" d="M90.78,62.44h.0193a2.4746,2.4746,0,0,0,2.4739-2.4545L94.138,2.4932A2.4741,2.4741,0,0,0,91.6834,0h-.0193A2.4746,2.4746,0,0,0,89.19,2.4545l-.8649,57.4918A2.4741,2.4741,0,0,0,90.78,62.44Z"/><path class="cls-1" d="M41.67,82.3451a2.4739,2.4739,0,0,0,1.7624-4.21L31.9146,66.4366l-.0072-.0057L9.6552,44.379A2.4737,2.4737,0,0,0,6.13,47.8506L39.9075,81.6071A2.4647,2.4647,0,0,0,41.67,82.3451Z"/><path class="cls-1" d="M140.6171,176.8386a2.4737,2.4737,0,0,0-3.5248,3.4716l8.4725,8.6042a2.4737,2.4737,0,0,0,3.5248-3.4716Z"/><path class="cls-1" d="M174.6261,46.4843a2.4719,2.4719,0,0,0-3.4982-.0266l-33.2492,32.41a2.4737,2.4737,0,1,0,3.4716,3.5248L174.6,49.9825A2.473,2.473,0,0,0,174.6261,46.4843Z"/><polygon class="cls-1" points="137.285 89.499 135.794 89.201 132.724 89.172 131.57 89.332 130.734 89.192 129.054 89.172 126.319 89.351 125.346 89.351 124.054 89.264 121.763 89.261 120.268 89.168 119.147 89.261 115.361 89.261 114.247 89.343 113.005 89.165 110.092 89.347 109.034 89.266 107.755 89.261 106.548 89.344 105.134 89.155 103.961 89.351 102.7 89.351 101.608 89.152 100.319 89.336 98.977 89.157 97.624 89.351 96.585 89.351 95.438 89.187 93.526 89.172 90.788 90.951 90.361 93.788 89.959 94.914 89.503 96.98 91.104 99.382 93.046 99.083 95.754 99.261 96.818 99.083 98.963 99.258 100.463 99.164 101.779 99.164 102.827 99.259 105.484 99.079 106.381 99.168 107.026 99.131 106.921 99.362 106.494 100.885 106.16 101.972 105.533 103.435 105.533 104.438 105.086 105.267 104.536 106.848 104.243 107.912 103.976 109.149 103.562 110.308 103.251 111.523 103.006 112.737 102.454 113.842 102.268 115.05 101.806 116.128 101.495 117.292 100.953 118.468 100.669 119.697 100.251 120.868 99.942 122.162 99.582 123.426 99.334 124.416 98.845 125.72 98.305 126.908 98.206 128.389 97.995 129.233 97.436 130.632 97.244 131.782 96.919 132.922 96.639 133.76 95.759 135.032 95.551 136.378 95.101 137.549 94.915 138.854 94.601 139.873 94.165 141.094 93.945 142.346 93.03 144.511 92.623 145.811 92.321 147.191 92.14 148.43 91.84 149.405 91.314 150.636 90.563 152.588 92.385 154.957 94.41 155.102 95.932 155.012 97.194 155.102 98.934 154.978 101.624 153.266 102.33 151.572 102.524 150.117 102.772 149.125 103.016 147.911 103.463 147.017 104.137 145.451 104.235 144.076 104.462 143.168 104.765 142.184 105.449 140.915 105.634 139.615 106.164 138.468 106.359 137.293 106.664 136.303 107.17 135.123 108.467 131.337 108.864 128.983 109.246 127.836 109.833 126.565 110.04 125.326 110.25 124.342 110.755 123.475 111.39 121.777 111.486 120.423 111.719 119.338 112.006 118.403 112.624 117.345 113.121 115.854 113.343 114.552 113.609 113.688 114.251 112.68 114.669 111.113 115.035 108.777 115.851 106.575 116.459 105.155 116.644 104.043 117.583 101.508 117.583 100.454 117.892 99.881 118.86 99.074 120.624 99.074 121.931 99.261 123.241 99.168 124.679 99.264 125.624 99.074 126.729 99.074 128.162 99.243 130.576 99.253 131.968 99.164 133.171 99.164 134.719 99.04 137.406 97.428 137.692 95.714 137.898 94.819 138.584 93.644 138.741 91.602 137.285 89.499"/><polygon class="cls-1" points="87.992 100.978 87.826 99.811 87.25 97.365 86.435 95.364 85.451 94.162 84.776 93.234 82.643 91.058 80.343 89.108 78.616 88.677 77.58 88.159 73.696 87.089 71.778 86.921 69.495 87.016 67.785 87.21 66.868 87.372 64.845 87.372 63.496 88.108 61.526 88.735 59.94 89.449 58.362 90.057 56.431 91.907 54.362 93.544 52.962 94.783 52.465 96.174 51.764 96.953 50.274 100.048 49.915 102.324 49.288 103.487 49.009 105.442 49.193 108.12 49.118 109.101 49.111 111.157 49.704 112.818 50.144 113.688 50.25 115.073 51.546 116.724 52.015 117.66 53.251 119.118 54.146 120.102 55.121 120.997 56.066 122.047 57.245 122.797 58.32 123.624 59.526 124.351 61.283 125.69 63.47 127.214 64.221 127.714 64.694 128.306 65.774 129.407 66.8 130.344 67.22 130.764 67.452 131.848 68.311 132.964 68.602 134.507 68.455 136.498 68.33 137.37 67.984 138.236 67.381 139.216 66.899 140.228 66.514 140.742 65.796 141.221 64.725 142.224 63.939 142.829 61.355 143.87 60.153 143.937 58.995 144.18 56.863 144.033 54.292 143.69 53.33 143.61 52.621 143.338 51.655 142.855 50.519 142.43 49.648 141.733 48.498 141.291 47.609 140.563 46.53 140.023 44.49 137.758 40.131 137.758 39.043 139.936 38.384 141.006 37.948 141.972 37.285 142.636 35.914 144.865 36.642 148.873 38.455 149.988 39.337 150.957 40.477 151.683 41.346 152.395 42.572 153.196 44.027 153.898 45 154.547 46.298 154.918 47.563 155.696 49.255 156.014 50.637 156.507 51.736 156.592 52.822 157.044 55.99 157.254 58.442 157.349 60 157.251 61.604 156.97 62.631 156.891 64.441 156.452 66.665 155.804 68.201 155.198 69.542 154.577 70.754 154.173 72.412 153.151 73.425 152.139 74.061 151.439 75.276 150.729 76.308 149.24 76.923 148.556 78.216 147.38 78.868 145.859 79.701 144.657 80.256 143.213 80.521 142 80.979 140.777 81.283 139.238 81.385 137.968 81.754 136.493 81.864 133.414 81.282 130.618 81.063 129.079 80.51 127.863 80.003 126.444 79.226 125.223 78.423 124.111 77.447 123.016 76.812 122.141 75.573 120.86 74.182 119.847 73.573 119.314 72.287 118.319 71.301 117.626 69.993 116.941 68.948 116.071 67.886 115.499 67.339 114.953 66.239 114.053 65.202 113.425 64.663 112.578 63.567 111.756 63.088 111.038 62.541 110.339 61.951 108.581 61.904 108.019 62.083 105.334 62.039 104.813 62.442 104.065 62.759 102.954 62.988 102.628 63.86 101.829 64.573 100.997 66.177 100.195 67.203 99.756 67.937 99.556 68.997 99.344 70.919 99.272 71.764 99.441 72.616 99.769 73.399 100.161 73.918 100.679 74.691 101.263 74.91 102.032 75.602 103.07 75.769 103.738 75.691 105.891 75.691 107.596 77.278 110.543 80.473 110.731 81.524 110.556 82.549 110.635 85.279 110.482 87.584 108.179 88.298 105.605 88.298 102.405 87.992 100.978"/><path class="cls-1" d="M118.4024,83.596l.0732-.0127a2.4715,2.4715,0,0,0,.8125-4.5742,56.1526,56.1526,0,0,0-57.5.8483,2.4586,2.4586,0,0,0-.842,3.3284l.0254.0431a2.4842,2.4842,0,0,0,3.4449.866,51.1516,51.1516,0,0,1,45.8718-3.9242,51.6747,51.6747,0,0,1,6.4434,3.1247A2.4978,2.4978,0,0,0,118.4024,83.596Z"/><path class="cls-1" d="M133.6707,101.2766a51.85,51.85,0,0,1,3.2143,6.2891,51.2554,51.2554,0,0,1-10.2764,55.7192,2.4939,2.4939,0,0,0,3.5825,3.4705,56.16,56.16,0,0,0,9.1661-65.4783C137.4594,101.2817,135.5635,101.3017,133.6707,101.2766Z"/><polygon class="cls-1" points="139.794 86.735 138.541 86.485 135.59 86.467 134.432 86.635 133.427 86.467 131.86 86.469 129.235 86.646 128.192 86.646 126.849 86.557 124.638 86.558 123.141 86.465 122.039 86.557 118.228 86.557 117.094 86.641 115.847 86.463 112.954 86.644 111.853 86.559 110.62 86.557 109.395 86.642 108.011 86.457 106.876 86.646 105.511 86.646 104.463 86.455 103.188 86.638 101.846 86.459 100.533 86.646 99.408 86.646 98.219 86.476 96.571 86.467 94.212 88 93.812 90.633 93.392 91.81 93.011 93.551 94.258 95.421 95.888 95.17 98.587 95.349 99.655 95.17 101.837 95.347 103.282 95.255 104.672 95.255 105.695 95.348 108.363 95.168 109.26 95.258 110.289 95.197 110.593 95.737 110.335 96.304 109.936 97.755 109.592 98.872 109.001 100.251 109.001 101.283 108.483 102.246 107.959 103.779 107.679 104.812 107.423 106.007 106.995 107.203 106.692 108.404 106.447 109.628 105.901 110.72 105.718 111.91 105.226 113.058 104.932 114.186 104.43 115.273 104.114 116.56 103.684 117.764 103.398 118.983 103.032 120.265 102.776 121.289 102.268 122.644 101.765 123.75 101.67 125.176 101.436 126.112 100.922 127.397 100.699 128.609 100.366 129.774 100.049 130.725 99.199 131.954 99.003 133.227 98.59 134.3 98.37 135.679 98.046 136.737 97.598 137.99 97.395 139.206 96.452 141.436 96.064 142.681 95.776 144.011 95.596 145.255 95.273 146.305 94.742 147.545 94.112 149.182 95.564 151.069 97.28 151.191 98.802 151.102 100.06 151.192 101.605 151.081 104.007 149.553 104.609 148.107 104.797 146.696 105.063 145.63 105.308 144.406 105.812 143.393 106.409 142 106.504 140.673 106.741 139.723 107.073 138.644 107.733 137.417 107.916 136.135 108.449 134.982 108.638 133.848 108.964 132.788 109.482 131.579 110.762 127.84 111.143 125.532 111.551 124.307 112.118 123.079 112.309 121.926 112.548 120.815 113.101 119.865 113.661 118.345 113.755 117.032 114.001 115.879 114.317 114.853 114.891 113.869 115.415 112.357 115.62 111.11 115.923 110.127 116.559 109.127 116.953 107.65 117.316 105.319 118.163 103.03 118.7 101.777 118.926 100.581 119.847 98.093 119.847 96.995 120.282 96.187 121.508 95.165 123.533 95.165 124.818 95.349 126.105 95.257 127.505 95.35 128.43 95.165 129.63 95.165 131.152 95.344 133.502 95.342 134.784 95.255 136.037 95.255 137.396 95.145 139.724 93.748 139.96 92.317 140.198 91.287 140.86 90.153 140.99 88.462 139.794 86.735"/><polygon class="cls-1" points="89.286 97.951 89.111 96.729 88.56 94.416 87.923 92.894 87.068 91.851 86.352 90.867 84.381 88.88 82.463 87.261 80.925 86.876 79.94 86.383 77.607 85.689 76.175 85.331 74.625 85.213 72.428 85.305 70.783 85.497 69.878 85.662 68.118 85.662 67.002 86.27 64.861 86.955 63.431 87.613 62.118 88.118 61.297 88.94 60.356 89.798 58.172 91.528 57.194 92.398 56.729 93.701 55.961 94.554 55.268 95.942 54.679 97.215 54.321 99.524 53.695 100.687 53.48 102.194 53.661 104.819 53.576 105.916 53.573 107.574 54.074 108.974 54.575 109.918 54.671 111.161 55.768 112.557 56.175 113.37 57.299 114.738 58.194 115.722 59.117 116.559 59.973 117.511 61.028 118.181 62.16 119.052 63.281 119.715 65.148 121.136 67.221 122.578 68.178 123.216 68.806 124.001 69.799 125.001 70.753 125.866 71.548 126.662 71.804 127.854 72.685 129 73.077 131.1 72.909 133.363 72.75 134.479 72.282 135.649 71.606 136.746 71.147 137.74 70.493 138.612 69.548 139.242 68.646 140.119 67.619 140.909 66.503 141.388 64.571 142.143 63.108 142.224 62.003 142.484 59.601 142.319 56.873 141.957 55.841 141.877 54.842 141.493 53.807 140.975 52.596 140.536 51.71 139.827 50.551 139.382 49.679 138.668 48.411 138.009 46.646 136.048 43.984 136.048 43.305 137.406 42.61 138.536 42.167 139.571 41.488 140.25 40.46 141.873 40.952 144.579 42.35 145.439 43.24 146.419 44.281 147.082 45.224 147.853 46.295 148.542 47.679 149.196 48.544 149.773 49.813 150.136 51.013 150.875 52.54 151.161 53.839 151.625 54.979 151.713 56.057 152.162 58.917 152.352 61.289 152.443 62.767 152.351 64.261 152.078 65.375 151.992 67.898 151.328 69.062 150.97 70.521 150.388 71.816 149.784 72.841 149.442 74.192 148.639 75.195 147.668 75.906 146.878 77.032 146.222 77.919 144.941 78.655 144.122 79.752 143.126 80.33 141.776 81.084 140.687 81.632 139.334 81.842 138.267 82.35 136.91 82.574 135.668 82.668 134.409 83.007 133.053 83.127 130.249 82.578 127.605 82.381 126.224 81.895 125.156 81.46 123.939 80.714 122.727 79.998 121.742 79.074 120.718 78.387 119.773 77.31 118.682 76.064 117.801 75.343 117.172 74.147 116.253 73.252 115.627 71.979 114.98 70.986 114.152 69.789 113.486 69.077 112.775 68.107 111.992 66.932 111.308 66.338 110.373 65.256 109.562 64.626 108.617 63.971 107.793 63.651 106.756 63.243 105.614 63.169 104.725 63.348 102.04 63.275 101.166 63.774 100.239 64.164 98.952 64.647 98.262 65.648 97.344 66.42 96.415 68.346 95.45 69.542 94.938 70.436 94.694 71.676 94.446 73.914 94.363 75.077 94.595 76.128 95 77.211 95.541 77.912 96.243 78.935 96.969 79.243 98.046 79.95 99.107 80.239 100.263 80.153 102.585 80.153 103.886 81.127 105.695 83.253 105.82 84.319 105.642 85.432 105.728 87.448 105.615 89.023 104.04 89.567 102.082 89.567 99.363 89.286 97.951"/></svg>