<svg id="Capa_1" data-name="Capa 1" xmlns="http://www.w3.org/2000/svg" width="122.0223" height="116.2139" viewBox="0 0 122.0223 116.2139"><defs><style>.cls-1{fill:#74b1c5;}</style></defs><title>STT_Web Assets</title><g id="_9" data-name="9"><path class="cls-1" d="M70.9794,92.6026c-.6964,7.0552,4.3348,12.7824,11.2366,12.7908s13.0622-5.705,13.7586-12.76S91.64,79.8507,84.738,79.8422,71.6757,85.5472,70.9794,92.6026ZM84.1075,86.23a5.6326,5.6326,0,0,1,5.6183,6.3954,7.1222,7.1222,0,0,1-6.8793,6.38A5.6343,5.6343,0,0,1,77.2282,92.61,7.1246,7.1246,0,0,1,84.1075,86.23ZM33.4863,92.5566c-.6964,7.0552,4.3349,12.7824,11.2366,12.7908s13.0622-5.705,13.7586-12.76S54.1467,79.8047,47.245,79.7963,34.1827,85.5013,33.4863,92.5566Zm13.1281-6.3725A5.6326,5.6326,0,0,1,52.2328,92.58a7.1223,7.1223,0,0,1-6.8793,6.38,5.6344,5.6344,0,0,1-5.6183-6.3954A7.1248,7.1248,0,0,1,46.6145,86.1842ZM41.6266,73.4007a5.6326,5.6326,0,0,1-5.6183-6.3954s72.4922-6.3,72.371-5.99c2.1942-6.0536,13.454-41.11,13.5927-41.8188a2.7376,2.7376,0,0,0-2.8092-3.1978l-78.1105-.0957.63-6.3876,3.1245.0038a3.5636,3.5636,0,0,0,3.44-3.19,2.8181,2.8181,0,0,0-2.8092-3.1978l-10.5041-.023a3.5636,3.5636,0,0,0-3.44,3.19,2.8181,2.8181,0,0,0,2.8092,3.1978l1.1307.0115-5.6744,57.49C29.063,74.0531,34.0943,79.78,40.9961,79.7886l6.2488.0077,37.493.0459,28.12.0345c.0969,0,.3127-3.1682.63-6.3878l-71.8617-.088Z"/></g><path class="cls-1" d="M58.1064,116.2139A58.1071,58.1071,0,0,1,17.0186,17.02a2,2,0,0,1,2.8281,2.8281,54.1267,54.1267,0,0,0,52.2666,90.5352,2,2,0,0,1,1.0332,3.8652A58.2559,58.2559,0,0,1,58.1064,116.2139Z"/><path class="cls-1" d="M89.4736,13.582a1.9973,1.9973,0,0,1-1.1182-.3428A53.8257,53.8257,0,0,0,58.1064,4a2,2,0,0,1,0-4A57.8123,57.8123,0,0,1,90.5957,9.9248a2,2,0,0,1-1.1221,3.6572Z"/></svg>