<svg id="Capa_1" data-name="Capa 1" xmlns="http://www.w3.org/2000/svg" width="122.0722" height="117.3418" viewBox="0 0 122.0722 117.3418"><defs><style>.cls-1{fill:#74b1c5;}</style></defs><title>STT_Web Assets</title><path class="cls-1" d="M114.4284,23.447l-76.107-.0932a9.6194,9.6194,0,0,0-9.27,8.5976L26.9774,52.96c-.0062.0624.0013.1208,0,.182L23.8055,85.2766a7.6053,7.6053,0,0,0,7.5711,8.6182l76.1249.0933a9.6193,9.6193,0,0,0,9.27-8.5976l5.2633-53.3253A7.65,7.65,0,0,0,114.4284,23.447ZM51.8,79.675l-12.7559-.0156a2.0778,2.0778,0,0,1-2.0852-2.3737,2.6385,2.6385,0,0,1,2.5532-2.368l12.7559.0156a2.0872,2.0872,0,0,1,2.0852,2.3737A2.6385,2.6385,0,0,1,51.8,79.675Zm.9594-9.72L40.0038,69.939a2.0872,2.0872,0,0,1-2.0852-2.3737,2.6385,2.6385,0,0,1,2.5532-2.368l12.7559.0156a2.0872,2.0872,0,0,1,2.0852,2.3737A2.6385,2.6385,0,0,1,52.76,69.9546ZM99.19,81.484A2.0873,2.0873,0,0,1,97.1047,79.11a2.6387,2.6387,0,0,1,2.5533-2.368,4.7322,4.7322,0,0,0,4.5547-4.2077,3.7567,3.7567,0,0,0-1.7915-3.723,3.9181,3.9181,0,0,0-3.5482-.205,9.2313,9.2313,0,0,1-1.0866,8.2976,9.6936,9.6936,0,0,1-8.1072,4.5864,7.9354,7.9354,0,0,1-7.9079-9.0017,10.1093,10.1093,0,0,1,5.6446-8.0184,8.4376,8.4376,0,0,1,8.6611.4666,8.721,8.721,0,0,1,8.7511-.4452,8.0016,8.0016,0,0,1,4.0447,8.012A10.0354,10.0354,0,0,1,99.19,81.484Zm16.3314-30.7862-83.6536-.1025.837-8.48,83.6536.1025Zm1.305-13.2219-83.6536-.1025.5328-5.3982A4.3066,4.3066,0,0,1,37.85,28.1318l76.1249.0933a3.4042,3.4042,0,0,1,3.3845,3.8526Z"/><path class="cls-1" d="M90.9861,68.25a4.7226,4.7226,0,0,0-4.5567,4.226,3.7343,3.7343,0,0,0,3.7214,4.2361,4.7225,4.7225,0,0,0,4.5565-4.2259A3.7343,3.7343,0,0,0,90.9861,68.25Z"/><path class="cls-1" d="M58.67,117.3418a58.6709,58.6709,0,1,1,32.8047-107.32,2,2,0,0,1-2.2383,3.3145,54.6735,54.6735,0,1,0,4.22,87.5137,2,2,0,0,1,2.5469,3.084A58.7621,58.7621,0,0,1,58.67,117.3418Z"/></svg>