<svg id="Capa_1" data-name="Capa 1" xmlns="http://www.w3.org/2000/svg" width="117.3408" height="117.3418" viewBox="0 0 117.3408 117.3418"><defs><style>.cls-1{fill:#da5e52;}</style></defs><title>STT_Web Assets</title><path class="cls-1" d="M90.1607,106.5213a38.2259,38.2259,0,0,1-12.9415-2.7792C66.8317,99.4309,55.9069,91.4345,46.4865,80.37c-9.4508-10.7579-16.3777-22.741-19.4914-33.7982-2.6039-10.1355-1.7858-18.4245,2.1817-22.1041a9.3537,9.3537,0,0,0,1.6834-1.84c3.9372-3.3726,8.2656-7.6659,13.0405-7.353,3.6039.0044,6.665,2.4645,9.5444,6.7666,8.9383,12.9066,3.979,17.5061-1.9723,23.0255l-.6916.92c-.9919.92-2.8874,4.9091,10.8837,20.585q6.8856,7.8379,11.5227,11.0675c1.9508,1.5376,5.6429,3.6914,7.3263,1.8512l.9919-.92c5.6509-5.52,10.61-10.1193,22.494.3346,3.8712,3.3822,5.61,7.0688,5.5769,10.4462-.2148,5.2194-4.8133,9.2053-8.75,12.5779a9.2272,9.2272,0,0,1-1.9535,1.5328C96.8587,105.6084,93.7646,106.5258,90.1607,106.5213Z"/><path class="cls-1" d="M58.6709,117.3418A58.6134,58.6134,0,1,1,113.9951,78.248a2,2,0,0,1-3.7715-1.334,54.6148,54.6148,0,1,0-33.4131,33.3467,2,2,0,1,1,1.3262,3.7734A58.5511,58.5511,0,0,1,58.6709,117.3418Z"/></svg>