<svg id="Capa_1" data-name="Capa 1" xmlns="http://www.w3.org/2000/svg" width="117.7134" height="117.3408" viewBox="0 0 117.7134 117.3408"><defs><style>.cls-1{fill:#fff;}</style></defs><title>STT_Web Assets</title><polygon class="cls-1" points="113.663 23.672 70.783 63.44 35.426 23.576 113.663 23.672"/><polygon class="cls-1" points="24.985 88.004 31.345 23.571 55.787 55.683 24.985 88.004"/><path class="cls-1" d="M29.0359,88.0371,59.4488,59.8311,68.16,69.6532a2.8206,2.8206,0,0,0,4.0456-.004l10.3907-9.6367L107.3006,88.133Z"/><polygon class="cls-1" points="111.357 88.11 87.059 55.876 117.713 23.709 111.357 88.11"/><path class="cls-1" d="M58.67,117.3408A58.67,58.67,0,1,1,93.5273,11.4736a2,2,0,0,1-2.3789,3.2148,54.6718,54.6718,0,1,0,9.6963,78.7725,2,2,0,0,1,3.084,2.5469A58.5184,58.5184,0,0,1,58.67,117.3408Z"/></svg>