<svg id="Capa_1" data-name="Capa 1" xmlns="http://www.w3.org/2000/svg" width="117.3408" height="117.3408" viewBox="0 0 117.3408 117.3408"><defs><style>.cls-1{fill:#da5e52;}</style></defs><title>STT_Web Assets</title><g id="_5" data-name="5"><path class="cls-1" d="M112.1557,12.4058c-3.0463-3.477-9.0787-2.67-12.8286.8151L80.2537,30.875,49.3168,18.553c-2.9962-.8177-5.9937-1.8718-10.201,2.0354-2.1429,1.9924-6.6048,6.1382-1.2129,12.2882L58.1261,51.354,42.34,65.9667,29.2948,62.5331a4.1515,4.1515,0,0,0-4.4423,1.0281c-.5784.6552-4.5834,3.4761-2.25,6.138L36.9431,82.0926,47.4754,98.0157c1.6907,1.9277,3.5568.73,6.1747-1.5873,1.6669-1.5484,1.4194-2.3461,1.186-4.6082L53.1517,78.2336,68.838,63.64,84.633,86.1968c5.3921,6.15,9.854,2.0043,11.9965.0147,4.2076-3.91,3.4938-7.0867,3.011-10.2383L90.9771,43.0445,109.9857,25.36C113.7385,21.8718,115.2024,15.88,112.1557,12.4058Z"/></g><path class="cls-1" d="M58.67,117.3408A58.67,58.67,0,1,1,89.0273,8.4541a2,2,0,1,1-2.0723,3.4219,54.5976,54.5976,0,1,0,21.6172,24.4287,2,2,0,1,1,3.6484-1.6387A58.6984,58.6984,0,0,1,58.67,117.3408Z"/></svg>