<svg id="Capa_1" data-name="Capa 1" xmlns="http://www.w3.org/2000/svg" width="114.3211" height="117.3408" viewBox="0 0 114.3211 117.3408"><defs><style>.cls-1{fill:#fff;}</style></defs><title>STT_Web Assets</title><path class="cls-1" d="M91.3329,13.5891l-35.67-.0437C41.6254,13.5282,29.0961,25.1326,27.68,39.4826l-3.599,36.4629c-1.4164,14.35,8.8177,26,22.8555,26.0168l35.67.0437c14.0378.0172,26.5688-11.6045,27.9852-25.9545l3.599-36.4629C115.6066,25.2386,105.3708,13.6063,91.3329,13.5891Zm1.232,53.35-10.4355-.0128L79.3513,95.0735l-10.4691-.0128L71.66,66.9139l-10.1479-.0124,1.0563-10.702,10.1479.0124.7338-7.4344c.8669-8.7829,8.5364-15.88,17.1115-15.87l6.9342.0085L96.44,43.6183,89.5056,43.61A5.7766,5.7766,0,0,0,83.92,48.79l-.7338,7.4344,12.16.0149Z"/><path class="cls-1" d="M58.67,117.3408A58.67,58.67,0,1,1,80.4688,4.1836a2,2,0,0,1-1.4863,3.7129,54.6749,54.6749,0,1,0,6.3232,98.5283,2,2,0,1,1,1.9512,3.4922A58.7074,58.7074,0,0,1,58.67,117.3408Z"/></svg>