<svg id="Capa_1" data-name="Capa 1" xmlns="http://www.w3.org/2000/svg" width="117.3408" height="127.1045" viewBox="0 0 117.3408 127.1045"><defs><style>.cls-1{fill:#74b1c5;}</style></defs><title>STT_Web Assets</title><polygon class="cls-1" points="65.371 35.011 65.599 34.106 66.599 33.022 67.57 32.05 69.674 30.904 70.972 30.626 72.694 30.397 76.004 30.29 77.088 30.723 78.722 30.941 79.578 31.533 80.45 32.405 82.298 34.761 83.291 38.548 86.184 41.681 89.017 42.196 91.455 42.196 93.174 42.074 95.832 42.314 100.489 37.947 99.569 34.723 99.694 33.092 99.239 30.969 99.084 28.949 98.094 26.476 96.902 24.241 95.551 22.89 94.815 21.126 90.923 17.94 88.961 17.025 87.924 16.117 86.313 15.311 86.201 15.171 87.205 12.989 87.205 11.381 87.815 10.06 88.42 7.941 89.204 4.564 86.206 0.566 82.767 0.301 80.715 0.43 77.494 0 73.781 3.467 72.845 6.088 72.229 8.353 71.952 10.233 71.072 11.993 70.81 13.216 70.312 13.652 68.677 13.754 67.016 14.508 64.907 14.904 62.426 15.967 61.273 16.737 59.603 17.379 57.351 18.73 55.376 19.986 53.751 21.936 52.33 23.513 51.526 24.988 50.31 26.34 47.98 30.663 47.642 33.032 47.194 35.27 47.194 37.237 46.577 41.557 47.408 43.881 47.681 45.796 48.365 47.574 48.726 49.741 50.744 52.125 51.95 53.599 54.586 56.518 55.753 57.853 59.389 60.469 62.419 62.404 63.812 63.417 65.842 64.728 69.074 66.669 70.059 67.476 70.627 68.232 72.181 69.95 73.084 71.193 73.878 72.441 74.568 73.82 74.75 74.609 74.246 78.393 74.304 79.096 73.541 80.088 72.196 82.778 71.519 83.21 68.296 85.122 67.171 85.468 65.543 85.685 63.513 85.812 60.567 86.057 59.214 85.888 57.914 85.331 55.304 83.837 53.821 83.13 53.382 82.503 52.437 81.27 52.228 80.114 51.4 78.459 51.084 76.988 50.24 74.198 46.724 70.683 43.837 70.924 41.723 70.806 40.454 70.679 36.006 70.663 32.904 75.175 33.135 77.94 33.391 79.776 33.391 81.288 33.745 84.153 34.58 86.158 35.438 87.891 35.887 89.835 37.215 91.828 38.042 93.317 39.658 94.933 40.883 96.617 42.418 97.734 43.753 99.401 46.318 100.428 47.802 101.318 48.573 101.538 48.132 102.639 48.132 104.29 47.06 105.898 47.06 108.125 46.44 109.365 45.501 113.125 48.158 117.776 52.708 117.776 54.354 117.523 57.675 117.718 61.179 114.464 61.89 112.333 62.969 110.328 63.277 108.171 63.802 106.598 64.081 104.92 64.288 104.195 64.965 103.637 68.545 103.409 72.327 102.389 74.074 101.767 75.768 101.065 78.208 100.151 81.556 97.962 83.825 96.393 84.718 95.203 86.273 93.908 87.675 92.193 89.086 90.263 89.825 88.488 90.796 86.788 91.803 84.608 92.094 82.426 92.634 80.805 92.942 78.341 93.27 73.81 92.73 72.054 92.891 69.473 91.696 67.53 91.547 65.439 90 63.506 88.877 61.54 87.297 59.802 86.232 58.83 85.224 57.102 83.134 55.535 81.928 54.598 80.457 53.526 78.566 51.95 76.496 51.063 75.302 50.303 72.274 48.197 70.456 47.025 69.178 45.98 67.155 44.181 66.304 42.844 65.158 41.602 64.834 39.441 64.943 36.508 65.371 35.011"/><path class="cls-1" d="M58.6709,127.1045a58.677,58.677,0,0,1-12.2-116.07,2,2,0,1,1,.8281,3.9141,54.6754,54.6754,0,1,0,66.042,53.4863,54.0862,54.0862,0,0,0-5.8955-24.7227,2,2,0,0,1,3.5664-1.8105,58.0532,58.0532,0,0,1,6.3291,26.5332A58.7365,58.7365,0,0,1,58.6709,127.1045Z"/></svg>