<svg id="Capa_1" data-name="Capa 1" xmlns="http://www.w3.org/2000/svg" width="339.5985" height="234.2043" viewBox="0 0 339.5985 234.2043"><defs><style>.cls-1{fill:#655b67;}.cls-2{fill:#fff;}.cls-3{fill:#da5e52;}</style></defs><title>STT_Web Assets</title><path class="cls-1" d="M61.7924,91.7394c1.4358-5.1674.8621-11.8837-2.6-16.1851-1.6082-1.9982-3.75-4.7615-6.1107-5.8871a30.3074,30.3074,0,0,0-8.2766-2.4332c-5.5867-.7667-11.5515.72-16.5032,3.157-4.5642,2.2465-9.2442,7.27-10.7236,12.206a23.9,23.9,0,0,0-1.4123,8.0489c.0817,1.471-.1164,2.9606.0093,4.42a16.7819,16.7819,0,0,0,1.28,4.0579A12.2979,12.2979,0,0,0,19.173,102.65a25.6808,25.6808,0,0,0,2.8695,3.6525,41.0311,41.0311,0,0,0,6.5636,5.1918c4.4559,3.0081,9.33,6.4592,11.4284,11.3942,2.1926,5.1565-2.0666,11.5213-6.4422,13.8139-4.79,2.51-11.7,2.03-16.4628-.2961a30.9074,30.9074,0,0,1-6.4626-3.8524c-1.6084-1.376-1.37-1.997-3.4312-2.1874-2.32-.2143-2.5255-.1662-3.5668,1.7487-1.2243,2.2513-3.7353,4.6881-3.6676,7.1788.0917,3.3715,2.944,4.9,5.5035,6.7064a37.4306,37.4306,0,0,0,14.8377,6.0274c10.8055,2.0192,23.86-2.6079,29.9426-11.772,6.27-9.4459,5.6692-23.6538-3.2168-31.2685-4.1226-3.5328-9.0994-5.9223-13.0974-9.4972-4.0408-3.6132-6.15-10.1273-2.5313-14.9134,3.3956-4.4915,10.5255-5.9166,15.0529-2.5953,2.2828,1.6747,2.8478,4.24,2.78,6.9779-.0385,1.5532-.07,2.77.8992,4.0841,1.1248,1.5243,2.1393,1.2586,4.1159,1.2379a19.8821,19.8821,0,0,0,4.6148-.1874C60.1013,93.7466,60.8627,92.6692,61.7924,91.7394Z"/><path class="cls-1" d="M165.0561,92.83c.8476-1.9458,1.9242-3.7851,2.633-5.7594.56-1.5606.9063-4.5032-.93-5.6127-.8072-.4878-4.1022-.1139-5.2619-.0952-2.0536.0331-4.7026.3738-6.2631,1.9358-.9626.9636-1.3435,3.604-2.0055,5.0312-.8035,1.7322-1.919,3.3268-2.6887,5.052-1.6344,3.6633-3.26,7.2359-5.1072,10.8064-1.6771,3.2425-3.7073,6.4139-5.3727,9.5824a46.3645,46.3645,0,0,1-2.552,4.7523c-.7231,1.0551-2.7112,4.0042-3.9565,4.4484-1.5988.57-.8872-3.3078-.8349-4.6323.0729-1.8464.2962-3.5933.4387-5.3225.3053-3.7042-.1344-7.3673.4393-11.0472A95.9685,95.9685,0,0,0,134.4,91.01c.0382-.9976.1406-2,.2214-2.9955.07-.8609.7743-2.6041.6835-3.2827-.0864-.6468-1.3089-1.72-1.7914-2.2264-1.1237-1.1788-.9065-1.0171-2.5151-1.0412-1.7271-.0259-4.1433-.527-5.81-.039-1.8183.5323-2.6492,2.4053-3.0692,4.3026-.8667,3.9151.0545,7.7889-.7881,11.6364-.4347,1.9851-.0836,3.7065-.2687,5.7534a12.5466,12.5466,0,0,1-1.9719,4.7759c-1.0253,1.74-2.4554,3.338-3.4714,5.1848a41.4171,41.4171,0,0,1-2.7175,3.9395c-1.5633,2.1984-5.2876,6.3266-8.0391,6.5461-4.2776.3413-1.6556-7.0406-.8916-9.26,2.564-7.45,4.5395-15.2408,7.5526-22.4268.7123-1.6989.8432-3.3548,1.5136-5.0231.3154-.7848.8767-1.419.8363-2.197A10.26,10.26,0,0,0,112.43,81.53c-.7909-.4846-4.5553-.1974-5.6132-.1092a5.5716,5.5716,0,0,0-4.4386,3.2647A47.67,47.67,0,0,1,99.8727,89.69c-2.0345-3.0816-3.7334-6.3326-7.1412-8.1108a19.1672,19.1672,0,0,0-11.4822-1.613C73.8014,81.15,66.7576,86.6527,63.1955,93.09c-1.8578,3.3574-3.7425,6.7821-4.42,10.5691-.32,1.7892-.77,3.5332-1.0611,5.3308a42.2859,42.2859,0,0,0-.1811,6.0146c-.1545,7.69,3.3213,15.6662,10.2553,19.4288a20.5248,20.5248,0,0,0,12.2837,1.9426c4.508-.5771,7.4779-3.5959,10.9346-6.0965,2.4474,5.9089,10.2865,8.0336,15.9107,5.1122a36.0151,36.0151,0,0,0,13.0249-12.4508c.5,5.0217,1.3013,11.1415,6.9193,12.8181a14.6007,14.6007,0,0,0,13.6013-2.718c3.9814-3.3334,6.8675-7.552,9.6756-11.9067,1.2933-2.0056,2.443-4.1652,3.6557-6.1894a58.8831,58.8831,0,0,0,3.68-7.018c1.0575-2.53,2.7015-4.7206,3.8129-7.1272C162.4905,98.1932,163.3291,95.3082,165.0561,92.83ZM92.5338,107.3937c-1.7183,5.3431-2.85,11.0089-7.9331,14.3126-4.95,3.2177-10.4548,2.63-12.6962-3.42-3.44-9.2855,2.2943-25.9719,13.889-25.4589a6.6541,6.6541,0,0,1,6.115,5.0562,24.902,24.902,0,0,1,.7334,4.0239C92.7907,103.728,92.0416,105.5858,92.5338,107.3937Z"/><path class="cls-1" d="M213.6645,118.2324c-1.7019-1.2163-2.8344-2.3922-4.8883-2.51-2.7312-.1562-3.3464.6148-5.2739,2.4023a22.8472,22.8472,0,0,1-9.75,4.9743c-3.3032.9213-7.2348,1.1934-10.3521-.0971a7.0769,7.0769,0,0,1-4.0623-3.3639c-.2471-.4638-1.07-2.0713-.9413-2.5659.2141-.8225,1.0235-.5362,2.0535-.6832,6.9569-.9931,14.1058-2.7537,19.7293-6.9628,5.6432-4.2239,9.053-11.8455,7.5581-18.8755-1.7723-8.3343-10.8627-11.5-18.3153-10.49a25.5241,25.5241,0,0,0-18.064,10.899c-8.25,11.538-11.5143,31.2613,1.3293,41.2024,6.1841,4.7866,14.4088,4.978,21.6892,3.3671a29.1282,29.1282,0,0,0,10.5251-4.7962c1.4-1.0212,2.9966-2.11,4.3326-3.1582,1.4943-1.1721,2.4576-2.948,3.7825-4.23,1.0317-.9979,1.01-.618,1.1343-1.8694A14.67,14.67,0,0,0,213.6645,118.2324Zm-35.49-11.793a20.0725,20.0725,0,0,1,5.6354-10.5926c2.166-2.0515,8.0431-5.5314,10.6727-2.0947,2.729,3.5667-2.0039,7.9743-4.7167,9.583a22.6474,22.6474,0,0,1-5.7521,2.1937C182.2842,106.0118,179.9029,107.015,178.174,106.4394Z"/><path class="cls-1" d="M75.638,170.6123c.5974-1.6127.8406-4.94,2.3418-5.8267,1.4559-.86,4.368-.1657,6.1053-.19,4.2392-.0591,9.1278.7624,13.3356-.1237a6.7062,6.7062,0,0,0,2.9131-1.3927c1.3017-1.0718,1.031-.9434,1.4794-2.723.5193-2.0609,1.817-3.6375.963-5.7742-1.0528-2.6341-3.1427-2.5048-5.5731-2.5166-2.0621-.01-4.1021-.0727-6.1631-.0156-8.33.2309-16.7286.27-25.0376.1168-4.1111-.076-8.1892-.123-12.2635-.1177-3.7639.0049-9.8914-.8865-10.6281,4.0057-.3739,2.4826-1.856,4.7775-.5152,7.0011,1.1022,1.8281,1.043,1.6786,3.001,1.514,1.2924-.1087,2.5635.1562,3.8578.1142,4.6441-.1506,9.4524.2435,14.1016-.1489-1.6012,4.432-2.8011,8.8363-4.1134,13.3753-1.2808,4.43-2.8509,8.697-4.1193,13.1374-1.3335,4.668-2.6834,9.185-3.8761,13.8408-.572,2.233-1.71,3.972-2.2314,6.17-.5641,2.379-1.2047,4.8483-1.9116,7.1979-.7512,2.4967-1.6092,4.7768-2.2111,7.3333a20.896,20.896,0,0,1-1.0964,3.07c-.7672,1.8937-1.0451,2.0363.0485,3.6055,1.7058,2.4479,3.7772,1.8929,6.5592,1.8657,2.6308-.0257,5.2051-.5676,6.6453-2.9916,1.2393-2.086,1.08-4.9837,2.0688-7.2422,1.0186-2.3262,1.5327-4.9756,2.3862-7.3961,1.6708-4.7384,3.0081-9.8594,4.2373-14.7716,1.3395-5.3529,3.4143-10.5359,5.0921-15.762a63.2158,63.2158,0,0,0,2.2357-7.1346C73.7964,176.1013,75.4588,173.3385,75.638,170.6123Z"/><path class="cls-1" d="M123.536,181.0836c.8474-6.3609-.4239-13.8064-7.2058-16.3232-2.8378-1.0531-7.407-.0683-10.0473,1.1951-3.0745,1.4712-4.6193,3.8459-6.8255,6.2.5234-2.0857.1426-5.6017-2.2953-6.4167-.8453-.2826-3.12.3277-4.1477.3277a4.8031,4.8031,0,0,0-3.7726,1.4605c-2.2912,1.8581-1.9323,4.3214-2.85,6.967-.867,2.4988-1.5,5.02-2.221,7.5768a131.4752,131.4752,0,0,0-3.6227,14.0537c-.3884,2.3825-1.4493,4.5986-1.9473,6.9914-.4779,2.2964-1.6317,4.4992-2.2555,6.8207-.3541,1.3176-.547,2.4761-.9472,3.7571-.3094.9905-.81,2.3118-.4809,3.2085,1.2325,3.3582,4.0979,2.282,6.7245,2.395,2.4971.1074,5.4206-.2829,6.6667-2.7359a34.7241,34.7241,0,0,0,2.4186-7.7982,58.6141,58.6141,0,0,1,4.4877-13.1869c2.1171-4.2554,3.8274-9.0018,6.9012-12.7491,1.4658-1.787,3.0324-4.1877,5.1832-5.0886,3.8-1.5916,3.4907,1.7413,3.684,4.3836.0691.9444-.1628.8175.2676,1.5135a7.1516,7.1516,0,0,0,2.2345,1.7191,11.6115,11.6115,0,0,0,3.8767.3705C120.68,185.6384,122.2769,184.0214,123.536,181.0836Z"/><path class="cls-1" d="M228.65,177.3668c.8475-1.9461,1.9244-3.7853,2.6333-5.76.56-1.5606.9058-4.503-.93-5.6123-.8073-.4878-4.102-.1139-5.2618-.0952-2.0537.0331-4.7025.3737-6.263,1.9358-.9627.9637-1.3433,3.6039-2.0053,5.0312-.8035,1.7323-1.9192,3.3269-2.689,5.0521-1.6345,3.6633-3.2606,7.2356-5.1074,10.8062-1.6771,3.2425-3.7072,6.4139-5.3724,9.5824a46.3449,46.3449,0,0,1-2.5518,4.7519c-.7233,1.0553-2.7111,4.0045-3.9567,4.4488-1.5985.57-.8872-3.3079-.8349-4.6323.073-1.8465.2962-3.5933.4387-5.3225.3052-3.7042-.1344-7.3673.4393-11.0472a95.9551,95.9551,0,0,0,.8047-10.96c.0382-.9974.14-2,.2212-2.9951.07-.861.7743-2.604.6835-3.2827-.0864-.6468-1.3089-1.72-1.7914-2.2264-1.1237-1.1787-.9065-1.0171-2.5151-1.0412-1.7271-.0259-4.1432-.527-5.81-.039-1.8183.5323-2.6493,2.4053-3.0693,4.3027-.8666,3.915.0545,7.7889-.788,11.6363-.4347,1.9851-.0839,3.7065-.2687,5.7534a12.54,12.54,0,0,1-1.971,4.7759c-1.0253,1.74-2.4554,3.338-3.4714,5.1848a41.4171,41.4171,0,0,1-2.7175,3.9395c-1.5633,2.1984-5.2876,6.3266-8.0391,6.5461-4.2776.3413-1.6556-7.0407-.8916-9.2605,2.564-7.45,4.5394-15.2407,7.5525-22.4267.7123-1.6989.8432-3.3548,1.5136-5.0231.3154-.7848.8767-1.419.8363-2.197a10.26,10.26,0,0,0-1.4428-3.126c-.7909-.4846-4.5553-.1974-5.6132-.1092a5.5717,5.5717,0,0,0-4.4386,3.2647,47.7244,47.7244,0,0,1-2.5053,5.0049c-2.0345-3.0816-3.7335-6.3324-7.141-8.1109a19.1668,19.1668,0,0,0-11.4824-1.6129c-7.4482,1.183-14.4914,6.686-18.0539,13.1232-1.858,3.3572-3.7425,6.7823-4.42,10.5691-.32,1.7892-.77,3.5332-1.0611,5.3308a42.286,42.286,0,0,0-.1811,6.0146c-.1545,7.69,3.3213,15.6663,10.2553,19.4288a20.5248,20.5248,0,0,0,12.2837,1.9426c4.5085-.5772,7.477-3.5965,10.9346-6.0965,2.4475,5.9092,10.2861,8.0331,15.91,5.1119a36.0093,36.0093,0,0,0,13.0242-12.449c.5006,5.0217,1.302,11.14,6.92,12.8165a14.6,14.6,0,0,0,13.601-2.718c3.9814-3.3336,6.8671-7.5519,9.6755-11.9065,1.2935-2.0058,2.4434-4.1654,3.6563-6.19a58.849,58.849,0,0,0,3.679-7.018c1.0575-2.53,2.7016-4.72,3.8131-7.1271C226.0842,182.73,226.9229,179.8446,228.65,177.3668ZM156.1285,191.93c-1.7183,5.3431-2.85,11.0089-7.9331,14.3126-4.95,3.2176-10.4549,2.63-12.6962-3.42-3.44-9.2855,2.2942-25.9719,13.889-25.4589a6.6542,6.6542,0,0,1,6.115,5.0561,24.9,24.9,0,0,1,.7334,4.024C156.3853,188.2644,155.6364,190.1222,156.1285,191.93Z"/><path class="cls-1" d="M308.0164,203.1272c-1.94-1.343-2.503-1.8485-4.8461-1.6785-2.1869.1586-2.5421,1.146-4.08,2.8011-1.707,1.8372-5.2431,5.0442-8.15,3.84-4.7672-1.9755-.0481-14.5237.69-17.7534,1.3475-5.8993,3.3734-12.0354,4.8694-17.8479.7555-2.9354,1.6814-6.075,2.6423-8.9385,1.02-3.0389,1.6365-6.2913,2.5952-9.4107.9511-3.0946,2.001-6.083,2.7581-9.2574.3377-1.4156.867-3.0153,1.3462-4.39.8523-2.4459,1.7109-2.7137-.6686-4.6463-1.7921-1.4555-6.3134-1.5937-8.5862-.6826-3.7927,1.52-3.9312,4.8309-4.7877,8.3369-1.4815,6.0644-3.9764,11.982-5.6665,18.0076-1.8588,6.6267-3.841,13.2316-5.721,19.7309-.7342,2.5382-1.0766,5.7871-2.2469,8.18-1.4851,3.037-3.5648,5.3992-5.5861,8.0375a28.3545,28.3545,0,0,1-14.4956,10.0721c-5.3153,1.5356-13.9939,1.7849-15.8836-4.9722-.5736-2.051.2146-1.55,2.1062-1.8062,1.608-.2175,3.0567-.554,4.6175-.9093,3.0971-.7052,6.2862-1.1876,9.2411-2.5424,5.2612-2.4121,11.0438-7.1324,12.6221-12.9672,1.6541-6.1149.7287-13.49-4.979-17.2285-5.8431-3.8268-13.4534-3.133-19.5725-.6708-6.1963,2.4933-10.8271,7.2084-14.0832,13.0666a37.7249,37.7249,0,0,0-3.1909,8.0119,32.0915,32.0915,0,0,0-1.314,9.5823,38.3042,38.3042,0,0,0,1.3382,9.4858c.7881,2.6886,3.0489,5.531,4.7577,7.7234,4.0505,5.1967,11.482,6.9724,17.834,6.8365a32.5913,32.5913,0,0,0,18.1577-6.5463,36.4856,36.4856,0,0,0,5.94-6.0627c1.0688,9.1762,8.8653,14.248,17.7144,11.9129,4.14-1.0924,7.31-3.4675,10.3487-6.4871a30.3589,30.3589,0,0,0,3.7745-4.5552C309.1613,206.8769,308.725,205.9608,308.0164,203.1272Zm-66.3781-12.0484c1.3069-3.7651,1.9547-7.4206,5.07-10.3179,2.3586-2.1938,8.01-5.7081,11.0466-2.707,3.8016,3.7577-1.9337,8.35-4.8138,9.8886C249.8981,189.5682,245.18,191.6162,241.6383,191.0789Z"/><path class="cls-2" d="M276.6288,91.9566a9.0474,9.0474,0,0,0-6.6275-9.1c-4.4135-1.0412-8.9326,1.1406-11.6312,4.62.3236-1.321.7635-3.1649-.7394-4.1277-.8423-.54-3.2069-.05-4.3433-.1772.4056-2.43,2.6328-5.34,1.5369-7.65-.8622-1.818-2.4728-1.5742-4.2391-1.1836a3.4658,3.4658,0,0,0-3.0947,2.74c-.382,1.1551-.6736,2.3672-1.0386,3.5479a6.89,6.89,0,0,1-.5966,1.7861c-.987,1.3627.0437.11-1.5924.7094-2.5114.92-4.5429,7.783-.65,6.85-1.1728,4.0847-3.313,10.2385-.8872,14.2,3.5048,5.7236,10.44,1.9175,13.7668-1.5888,3.4742,4.5517,8.3958,5.763,13.53,2.7292C274.1141,102.8939,277.38,96.8112,276.6288,91.9566Zm-7.5391,2.25c-.8142,1.7411-1.2281,4.78-3.6209,5.4077-2.6891.7052-3.0119-2.6771-2.6614-4.54.3465-1.842,1.939-5.1765,4.2644-5.1073C269.1688,90.0292,269.1418,92.6757,269.09,94.2064Zm-12.6323-3.6c-.228,2.261-1.6479,4.4386-2.9775,6.2286-.9336,1.2568-3.9738,4.4525-4.1429,1.5478-.1165-2.0019.883-5.254,1.6573-7.1167.6135-1.4757.4758-1.2814,2.2608-1.282,1.304,0,2.8159.294,3.8752-.6732C256.9087,89.7372,256.7172,90.2021,256.4574,90.6061Z"/><path class="cls-3" d="M156.6353,158.3913c-17.0927.0009-29.9859-3.4116-42.5285-6.731-20.4924-5.4237-41.6832-11.029-82.1421-2.1463a1.8693,1.8693,0,0,1-.8015-3.6517c41.3445-9.079,62.978-3.3523,83.9,2.1828,15.5434,4.1136,30.2278,7.9963,52.5807,6.1394,31.725-2.6393,43.3648-12.47,62.6494-28.7562,4.8011-4.0543,9.8048-5.6839,14.8606-4.8421,9.6925,1.6095,15.884,11.7648,16.1423,12.1967a1.87,1.87,0,0,1-2.411,2.6475c-.12-.0584-11.9237-5.52-15.15-.5313a4.03,4.03,0,0,0-.4455,4.0351c1.6688,3.9584,9.9016,9.4871,28.0048,13.1324a1.87,1.87,0,1,1-.7376,3.6663c-16.837-3.3906-28.0313-8.9841-30.7126-15.3472a7.7691,7.7691,0,0,1,.7522-7.5188c2.9232-4.5171,8.9156-4.1794,13.5688-3.0346-2.38-2.3982-5.7131-4.9134-9.64-5.5606-3.9265-.6418-7.9014.7048-11.8205,4.0141-19.8533,16.7668-31.8364,26.8865-64.7509,29.6253C163.9752,158.2425,160.2121,158.3913,156.6353,158.3913Z"/><path class="cls-3" d="M269.2992,122.7553a1.87,1.87,0,0,1-.6144-3.6362,28.1431,28.1431,0,1,0-36.789-20.7937,1.87,1.87,0,0,1-3.6608.765,31.8688,31.8688,0,1,1,41.6786,23.56A1.8578,1.8578,0,0,1,269.2992,122.7553Z"/><path class="cls-3" d="M289.2794,128.2831a1.8674,1.8674,0,0,1-1.4041-.6336l-4.0452-4.592a1.87,1.87,0,1,1,2.8063-2.4722l4.0452,4.592a1.87,1.87,0,0,1-1.4023,3.1058Z"/><path class="cls-3" d="M233.6422,65.1152a1.8674,1.8674,0,0,1-1.4041-.6336L214.1065,43.8961a1.87,1.87,0,0,1,2.8063-2.4722l18.1316,20.5855a1.87,1.87,0,0,1-1.4023,3.1058Z"/><path class="cls-3" d="M289.2794,128.2831a1.8674,1.8674,0,0,1-1.4041-.6336l-4.0452-4.592a1.87,1.87,0,1,1,2.8063-2.4722l4.0452,4.592a1.87,1.87,0,0,1-1.4023,3.1058Z"/><path class="cls-3" d="M233.6422,65.1152a1.8674,1.8674,0,0,1-1.4041-.6336L214.1065,43.8961a1.87,1.87,0,0,1,2.8063-2.4722l18.1316,20.5855a1.87,1.87,0,0,1-1.4023,3.1058Z"/><path class="cls-3" d="M288.7262,68.6071a1.87,1.87,0,0,1-1.237-3.2728L307.442,47.76a1.87,1.87,0,0,1,2.4722,2.8063L289.9613,68.1406A1.8629,1.8629,0,0,1,288.7262,68.6071Z"/><path class="cls-3" d="M261.9081,55.4528c-.04,0-.0794-.0009-.1205-.0037a1.8709,1.8709,0,0,1-1.7473-1.9847l2.5023-39.4721a1.87,1.87,0,1,1,3.732.2374l-2.5023,39.4721A1.87,1.87,0,0,1,261.9081,55.4528Z"/><path class="cls-3" d="M261.9081,55.4528c-.04,0-.0794-.0009-.1205-.0037a1.8709,1.8709,0,0,1-1.7473-1.9847l2.5023-39.4721a1.87,1.87,0,1,1,3.732.2374l-2.5023,39.4721A1.87,1.87,0,0,1,261.9081,55.4528Z"/><path class="cls-3" d="M300.942,97.0337c-.04,0-.0794-.0009-.12-.0037l-2.5525-.1616a1.87,1.87,0,0,1,.2355-3.732l2.5525.1616a1.87,1.87,0,0,1-.1159,3.7357Z"/><path class="cls-3" d="M220.4888,91.9341c-.04,0-.0794-.0009-.1205-.0037l-7.9023-.5012a1.87,1.87,0,1,1,.2374-3.732l7.9023.5012a1.87,1.87,0,0,1-.1169,3.7357Z"/><path class="cls-3" d="M300.4253,115.4748a1.8583,1.8583,0,0,1-.8527-.2072l-6.2791-3.2281a1.8692,1.8692,0,1,1,1.709-3.3249l6.2791,3.2272a1.87,1.87,0,0,1-.8563,3.533Z"/><path class="cls-3" d="M224.7248,76.56a1.8687,1.8687,0,0,1-.8527-.2063l-5.51-2.8328a1.87,1.87,0,1,1,1.709-3.3267l5.51,2.8328a1.87,1.87,0,0,1-.8563,3.533Z"/><path class="cls-3" d="M300.4253,115.4748a1.8583,1.8583,0,0,1-.8527-.2072l-6.2791-3.2281a1.8692,1.8692,0,1,1,1.709-3.3249l6.2791,3.2272a1.87,1.87,0,0,1-.8563,3.533Z"/><path class="cls-3" d="M224.7248,76.56a1.8687,1.8687,0,0,1-.8527-.2063l-5.51-2.8328a1.87,1.87,0,1,1,1.709-3.3267l5.51,2.8328a1.87,1.87,0,0,1-.8563,3.533Z"/><path class="cls-3" d="M277.279,59.6924a1.87,1.87,0,0,1-1.6606-2.7242L304.3828,1.0152a1.8692,1.8692,0,0,1,3.3249,1.709L278.9433,58.6772A1.8682,1.8682,0,0,1,277.279,59.6924Z"/><path class="cls-3" d="M273.4438,138.045a1.87,1.87,0,0,1-1.78-1.2991l-2.08-6.479a1.87,1.87,0,1,1,3.56-1.143l2.08,6.479a1.8722,1.8722,0,0,1-1.78,2.4421Z"/><path class="cls-3" d="M247.51,57.243a1.87,1.87,0,0,1-1.78-1.2991l-2.8264-8.81a1.87,1.87,0,1,1,3.56-1.143l2.8264,8.81a1.8722,1.8722,0,0,1-1.78,2.4421Z"/><path class="cls-3" d="M273.4438,138.045a1.87,1.87,0,0,1-1.78-1.2991l-2.08-6.479a1.87,1.87,0,1,1,3.56-1.143l2.08,6.479a1.8722,1.8722,0,0,1-1.78,2.4421Z"/><path class="cls-3" d="M247.51,57.243a1.87,1.87,0,0,1-1.78-1.2991L230.2607,7.7407a1.87,1.87,0,0,1,3.56-1.143l15.4695,48.2033a1.8722,1.8722,0,0,1-1.78,2.4421Z"/><path class="cls-3" d="M296.5992,82.4771a1.87,1.87,0,0,1-.5715-3.6508l41.129-13.2a1.87,1.87,0,0,1,1.143,3.56l-41.129,13.2A1.8624,1.8624,0,0,1,296.5992,82.4771Z"/><path class="cls-2" d="M65.4421,87.5282c1.4358-5.1674.8621-11.8837-2.6-16.1851-1.6082-1.9982-3.75-4.7615-6.1107-5.8871a30.3074,30.3074,0,0,0-8.2766-2.4332c-5.5867-.7667-11.5515.72-16.5032,3.157-4.5642,2.2465-9.2442,7.27-10.7236,12.206a23.9,23.9,0,0,0-1.4123,8.0489c.0817,1.471-.1164,2.9606.0093,4.42a16.7819,16.7819,0,0,0,1.28,4.0579,12.2979,12.2979,0,0,0,1.7177,3.5258,25.6808,25.6808,0,0,0,2.8695,3.6525,41.0311,41.0311,0,0,0,6.5636,5.1918c4.4559,3.0081,9.33,6.4592,11.4284,11.3942,2.1926,5.1565-2.0666,11.5213-6.4422,13.8139-4.79,2.51-11.7,2.03-16.4628-.2961a30.9074,30.9074,0,0,1-6.4626-3.8524c-1.6084-1.376-1.37-1.997-3.4312-2.1874-2.32-.2143-2.5255-.1662-3.5668,1.7487-1.2243,2.2513-3.7353,4.6881-3.6676,7.1788.0917,3.3715,2.944,4.9,5.5035,6.7064a37.4306,37.4306,0,0,0,14.8377,6.0274c10.8055,2.0192,23.86-2.6079,29.9426-11.772,6.27-9.4459,5.6692-23.6538-3.2168-31.2685-4.1226-3.5328-9.0994-5.9223-13.0974-9.4972-4.0408-3.6132-6.15-10.1273-2.5313-14.9134,3.3956-4.4915,10.5255-5.9166,15.0529-2.5953,2.2828,1.6747,2.8478,4.24,2.78,6.9779-.0385,1.5532-.07,2.77.8992,4.0841,1.1248,1.5243,2.1393,1.2586,4.1159,1.2379a19.8821,19.8821,0,0,0,4.6148-.1874C63.751,89.5354,64.5123,88.4581,65.4421,87.5282Z"/><path class="cls-2" d="M168.7058,88.6192c.8476-1.9458,1.9242-3.7851,2.633-5.7594.56-1.5606.9063-4.5032-.93-5.6127-.8072-.4878-4.1022-.1139-5.2619-.0952-2.0536.0331-4.7026.3738-6.2631,1.9358-.9626.9636-1.3435,3.604-2.0055,5.0312-.8035,1.7322-1.919,3.3268-2.6887,5.052-1.6344,3.6633-3.26,7.2359-5.1072,10.8064-1.6771,3.2425-3.7073,6.4139-5.3727,9.5824a46.3645,46.3645,0,0,1-2.552,4.7523c-.7231,1.0551-2.7112,4.0042-3.9565,4.4484-1.5988.57-.8872-3.3078-.8349-4.6323.0729-1.8464.2962-3.5933.4387-5.3225.3053-3.7042-.1344-7.3673.4393-11.0472a95.9686,95.9686,0,0,0,.8046-10.96c.0382-.9976.1406-2,.2214-2.9955.07-.8609.7743-2.6041.6835-3.2827-.0864-.6468-1.3089-1.72-1.7914-2.2264-1.1237-1.1788-.9065-1.0171-2.5151-1.0412-1.7271-.0259-4.1433-.527-5.81-.039-1.8183.5323-2.6492,2.4053-3.0692,4.3026-.8667,3.9151.0545,7.7889-.7881,11.6364-.4347,1.9851-.0836,3.7065-.2687,5.7534a12.5466,12.5466,0,0,1-1.9719,4.7759c-1.0253,1.74-2.4554,3.338-3.4714,5.1848a41.4171,41.4171,0,0,1-2.7175,3.9395c-1.5633,2.1984-5.2876,6.3266-8.0391,6.5461-4.2776.3413-1.6556-7.0406-.8916-9.26,2.564-7.45,4.5395-15.2408,7.5526-22.4268.7123-1.6989.8432-3.3548,1.5136-5.0231.3154-.7848.8767-1.419.8363-2.197a10.26,10.26,0,0,0-1.4428-3.126c-.7909-.4846-4.5553-.1974-5.6132-.1092a5.5716,5.5716,0,0,0-4.4386,3.2647,47.67,47.67,0,0,1-2.5053,5.0049c-2.0345-3.0816-3.7334-6.3326-7.1412-8.1108a19.1672,19.1672,0,0,0-11.4822-1.613c-7.4479,1.1829-14.4917,6.6861-18.0538,13.1232-1.8578,3.3574-3.7425,6.7821-4.42,10.5691-.32,1.7892-.77,3.5332-1.0611,5.3308a42.2859,42.2859,0,0,0-.1811,6.0146c-.1545,7.69,3.3213,15.6662,10.2553,19.4288a20.5248,20.5248,0,0,0,12.2837,1.9426c4.508-.5771,7.4779-3.5959,10.9346-6.0965,2.4474,5.9089,10.2865,8.0336,15.9107,5.1122A36.0151,36.0151,0,0,0,123.592,118.73c.5,5.0217,1.3013,11.1415,6.9193,12.8181a14.6007,14.6007,0,0,0,13.6013-2.718c3.9814-3.3334,6.8675-7.552,9.6756-11.9067,1.2933-2.0056,2.443-4.1652,3.6557-6.1894a58.883,58.883,0,0,0,3.68-7.018c1.0575-2.53,2.7015-4.7206,3.8129-7.1272C166.14,93.9821,166.9788,91.097,168.7058,88.6192ZM96.1835,103.1825c-1.7183,5.3431-2.85,11.0089-7.9331,14.3126-4.95,3.2177-10.4548,2.63-12.6962-3.42-3.44-9.2855,2.2943-25.9719,13.889-25.4589a6.6541,6.6541,0,0,1,6.115,5.0562,24.902,24.902,0,0,1,.7334,4.0239C96.44,99.5168,95.6913,101.3747,96.1835,103.1825Z"/><path class="cls-2" d="M217.3141,114.0212c-1.7019-1.2163-2.8344-2.3922-4.8883-2.51-2.7312-.1562-3.3464.6148-5.2739,2.4023a22.8472,22.8472,0,0,1-9.75,4.9743c-3.3032.9213-7.2348,1.1934-10.3521-.0971a7.0769,7.0769,0,0,1-4.0623-3.3639c-.2471-.4638-1.07-2.0713-.9413-2.5659.2141-.8225,1.0235-.5362,2.0535-.6832,6.9569-.9931,14.1058-2.7537,19.7293-6.9628,5.6432-4.2239,9.053-11.8455,7.5581-18.8755-1.7723-8.3343-10.8627-11.5-18.3153-10.49a25.5241,25.5241,0,0,0-18.064,10.899c-8.25,11.538-11.5143,31.2613,1.3293,41.2024,6.1841,4.7866,14.4088,4.978,21.6892,3.3671a29.1282,29.1282,0,0,0,10.5251-4.7962c1.4-1.0212,2.9966-2.11,4.3326-3.1582,1.4943-1.1721,2.4576-2.948,3.7825-4.23,1.0317-.9979,1.01-.618,1.1343-1.8694A14.67,14.67,0,0,0,217.3141,114.0212Zm-35.49-11.793a20.0725,20.0725,0,0,1,5.6354-10.5926c2.166-2.0515,8.0431-5.5314,10.6727-2.0947,2.729,3.5667-2.0039,7.9743-4.7167,9.583a22.6474,22.6474,0,0,1-5.7521,2.1937C185.9338,101.8007,183.5526,102.8038,181.8236,102.2282Z"/><path class="cls-2" d="M79.2876,166.4012c.5974-1.6127.8406-4.94,2.3418-5.8267,1.4559-.86,4.368-.1657,6.1053-.19,4.2392-.0591,9.1278.7624,13.3356-.1237a6.7062,6.7062,0,0,0,2.9131-1.3927c1.3017-1.0718,1.031-.9434,1.4794-2.723.5193-2.0609,1.817-3.6375.963-5.7742-1.0528-2.6341-3.1427-2.5048-5.5731-2.5166-2.0621-.01-4.1021-.0727-6.1631-.0156-8.33.2309-16.7286.27-25.0376.1168-4.1111-.076-8.1892-.123-12.2635-.1177-3.7639.0049-9.8914-.8865-10.6281,4.0057-.3739,2.4826-1.856,4.7775-.5152,7.0011,1.1022,1.8281,1.043,1.6786,3.001,1.514,1.2924-.1087,2.5635.1562,3.8578.1142,4.6441-.1506,9.4524.2435,14.1016-.1489-1.6012,4.432-2.8011,8.8363-4.1134,13.3753-1.2808,4.43-2.8509,8.697-4.1193,13.1374-1.3335,4.668-2.6834,9.185-3.8761,13.8408-.572,2.233-1.71,3.972-2.2314,6.17-.5641,2.379-1.2047,4.8483-1.9116,7.1979-.7512,2.4967-1.6092,4.7768-2.2111,7.3333a20.896,20.896,0,0,1-1.0964,3.07c-.7672,1.8937-1.0451,2.0363.0485,3.6055,1.7058,2.4479,3.7772,1.8929,6.5592,1.8657,2.6308-.0257,5.2051-.5676,6.6453-2.9916,1.2393-2.086,1.08-4.9837,2.0688-7.2422,1.0186-2.3262,1.5327-4.9756,2.3862-7.3961,1.6708-4.7384,3.0081-9.8594,4.2373-14.7716,1.3395-5.3529,3.4143-10.5359,5.0921-15.762a63.2158,63.2158,0,0,0,2.2357-7.1346C77.4461,171.89,79.1085,169.1274,79.2876,166.4012Z"/><path class="cls-2" d="M127.1857,176.8724c.8474-6.3609-.4239-13.8064-7.2058-16.3232-2.8378-1.0531-7.407-.0683-10.0473,1.1951-3.0745,1.4712-4.6193,3.8459-6.8255,6.2.5234-2.0857.1426-5.6017-2.2953-6.4167-.8453-.2826-3.12.3277-4.1477.3277a4.8031,4.8031,0,0,0-3.7726,1.4605c-2.2912,1.8581-1.9323,4.3214-2.85,6.967-.867,2.4988-1.5,5.02-2.221,7.5768a131.4752,131.4752,0,0,0-3.6227,14.0537c-.3884,2.3825-1.4493,4.5986-1.9473,6.9914-.4779,2.2964-1.6317,4.4992-2.2555,6.8207-.3541,1.3176-.547,2.4761-.9472,3.7571-.3094.9905-.81,2.3118-.4809,3.2085,1.2325,3.3582,4.0979,2.282,6.7245,2.395,2.4971.1074,5.4206-.2829,6.6667-2.7359a34.7241,34.7241,0,0,0,2.4186-7.7982,58.6141,58.6141,0,0,1,4.4877-13.1869c2.1171-4.2554,3.8274-9.0018,6.9012-12.7491,1.4658-1.787,3.0324-4.1877,5.1832-5.0886,3.8-1.5916,3.4907,1.7413,3.684,4.3836.0691.9444-.1628.8175.2676,1.5135a7.1516,7.1516,0,0,0,2.2345,1.7191,11.6115,11.6115,0,0,0,3.8767.3705C124.33,181.4272,125.9265,179.81,127.1857,176.8724Z"/><path class="cls-2" d="M232.3,173.1557c.8475-1.9461,1.9244-3.7853,2.6333-5.76.56-1.5606.9058-4.503-.93-5.6123-.8073-.4878-4.102-.1139-5.2618-.0952-2.0537.0331-4.7025.3737-6.263,1.9358-.9627.9637-1.3433,3.6039-2.0053,5.0312-.8035,1.7323-1.9192,3.3269-2.689,5.0521-1.6345,3.6633-3.2606,7.2356-5.1074,10.8062-1.6771,3.2425-3.7072,6.4139-5.3724,9.5824a46.3449,46.3449,0,0,1-2.5518,4.7519c-.7233,1.0553-2.7111,4.0045-3.9567,4.4488-1.5985.57-.8872-3.3079-.8349-4.6323.073-1.8465.2962-3.5933.4387-5.3225.3052-3.7042-.1344-7.3673.4393-11.0472a95.9551,95.9551,0,0,0,.8047-10.96c.0382-.9974.14-2,.2212-2.9951.07-.861.7743-2.604.6835-3.2827-.0864-.6468-1.3089-1.72-1.7914-2.2264-1.1237-1.1787-.9065-1.0171-2.5151-1.0412-1.7271-.0259-4.1432-.527-5.81-.039-1.8183.5323-2.6493,2.4053-3.0693,4.3027-.8666,3.915.0545,7.7889-.788,11.6363-.4347,1.9851-.0839,3.7065-.2687,5.7534a12.54,12.54,0,0,1-1.971,4.7759c-1.0253,1.74-2.4554,3.338-3.4714,5.1848a41.4171,41.4171,0,0,1-2.7175,3.9395c-1.5633,2.1984-5.2876,6.3266-8.0391,6.5461-4.2776.3413-1.6556-7.0407-.8916-9.2605,2.564-7.45,4.5394-15.2407,7.5525-22.4267.7123-1.6989.8432-3.3548,1.5136-5.0231.3154-.7848.8767-1.419.8363-2.197a10.26,10.26,0,0,0-1.4428-3.126c-.7909-.4846-4.5553-.1974-5.6132-.1092a5.5717,5.5717,0,0,0-4.4386,3.2647,47.7244,47.7244,0,0,1-2.5053,5.0049c-2.0345-3.0816-3.7335-6.3324-7.141-8.1109a19.1668,19.1668,0,0,0-11.4824-1.6129c-7.4482,1.183-14.4914,6.686-18.0539,13.1232-1.858,3.3572-3.7425,6.7823-4.42,10.5691-.32,1.7892-.77,3.5332-1.0611,5.3308a42.2859,42.2859,0,0,0-.1811,6.0146c-.1545,7.69,3.3213,15.6663,10.2553,19.4288a20.5248,20.5248,0,0,0,12.2837,1.9426c4.5085-.5772,7.477-3.5965,10.9346-6.0965,2.4475,5.9092,10.2861,8.0331,15.91,5.1119a36.0093,36.0093,0,0,0,13.0242-12.449c.5006,5.0217,1.302,11.14,6.92,12.8165a14.6,14.6,0,0,0,13.601-2.718c3.9814-3.3336,6.8671-7.5519,9.6755-11.9065,1.2935-2.0058,2.4434-4.1654,3.6563-6.19a58.8491,58.8491,0,0,0,3.679-7.018c1.0575-2.53,2.7016-4.72,3.8131-7.1271C229.7339,178.5184,230.5725,175.6335,232.3,173.1557ZM159.7781,187.719c-1.7183,5.3431-2.85,11.0089-7.9331,14.3126-4.95,3.2176-10.4549,2.63-12.6962-3.42-3.44-9.2855,2.2942-25.9719,13.889-25.4589a6.6542,6.6542,0,0,1,6.115,5.0561,24.9,24.9,0,0,1,.7334,4.024C160.035,184.0533,159.286,185.911,159.7781,187.719Z"/><path class="cls-2" d="M311.6661,198.9161c-1.94-1.343-2.503-1.8485-4.8461-1.6785-2.1869.1586-2.5421,1.146-4.08,2.8011-1.707,1.8372-5.2431,5.0442-8.15,3.84-4.7672-1.9755-.0481-14.5237.69-17.7534,1.3475-5.8993,3.3734-12.0354,4.8694-17.8479.7555-2.9354,1.6814-6.075,2.6423-8.9385,1.02-3.0389,1.6365-6.2913,2.5952-9.4107.9511-3.0946,2.001-6.083,2.7581-9.2574.3377-1.4156.867-3.0153,1.3462-4.39.8523-2.4459,1.7109-2.7137-.6686-4.6463-1.7921-1.4555-6.3134-1.5937-8.5862-.6826-3.7927,1.52-3.9312,4.8309-4.7877,8.3369-1.4815,6.0644-3.9764,11.9821-5.6665,18.0076-1.8588,6.6267-3.841,13.2316-5.721,19.7309-.7342,2.5382-1.0766,5.7871-2.2469,8.18-1.4851,3.037-3.5648,5.3992-5.5861,8.0375a28.3545,28.3545,0,0,1-14.4956,10.0721c-5.3153,1.5356-13.9939,1.7849-15.8836-4.9722-.5736-2.051.2146-1.55,2.1062-1.8062,1.608-.2175,3.0567-.554,4.6175-.9093,3.0971-.7052,6.2862-1.1876,9.2411-2.5424,5.2612-2.4121,11.0438-7.1324,12.6221-12.9672,1.6541-6.1149.7287-13.49-4.979-17.2285-5.8431-3.8268-13.4534-3.133-19.5725-.6708-6.1963,2.4933-10.8271,7.2084-14.0832,13.0666a37.7249,37.7249,0,0,0-3.1909,8.0119,32.0915,32.0915,0,0,0-1.314,9.5823,38.3042,38.3042,0,0,0,1.3382,9.4858c.7881,2.6886,3.0489,5.531,4.7577,7.7234,4.0505,5.1967,11.482,6.9724,17.834,6.8365a32.5913,32.5913,0,0,0,18.1577-6.5463,36.4856,36.4856,0,0,0,5.94-6.0627c1.0688,9.1762,8.8653,14.248,17.7144,11.9129,4.14-1.0924,7.31-3.4675,10.3487-6.4871a30.3589,30.3589,0,0,0,3.7745-4.5552C312.811,202.6657,312.3747,201.75,311.6661,198.9161ZM245.288,186.8677c1.3069-3.7651,1.9547-7.4206,5.07-10.3179,2.3586-2.1938,8.01-5.7081,11.0466-2.707,3.8016,3.7577-1.9337,8.35-4.8138,9.8886C253.5478,185.3571,248.83,187.405,245.288,186.8677Z"/></svg>