<svg id="Capa_1" data-name="Capa 1" xmlns="http://www.w3.org/2000/svg" width="114.8632" height="117.3408" viewBox="0 0 114.8632 117.3408"><defs><style>.cls-1{fill:#fff;}</style></defs><title>STT_Web Assets</title><path class="cls-1" d="M71.03,40.3844c-8.0548-.01-15.2685,6.6805-16.0812,14.9144S60.0281,70.2381,68.0823,70.248s15.2686-6.68,16.0813-14.9134S79.0846,40.3943,71.03,40.3844Z"/><path class="cls-1" d="M93.2877,11.1484l-38.7405-.0475C41.3911,11.0848,29.6077,22.0136,28.28,35.4622l-3.9088,39.602c-1.3275,13.4492,8.2959,24.4036,21.4521,24.42l38.7405.0475c13.1571.0161,24.94-10.9126,26.2678-24.3613l3.9088-39.602C116.0686,22.12,106.4448,11.1645,93.2877,11.1484ZM67.3082,78.09c-12.2845-.0151-21.27-10.2431-20.0309-22.8s12.242-22.7619,24.5265-22.7468,21.27,10.2436,20.0308,22.8014S79.5929,78.1053,67.3082,78.09ZM98.6828,35.7451a6.1982,6.1982,0,0,1-4.1449,1.6785A5.0694,5.0694,0,0,1,90.73,35.7353a5.3712,5.3712,0,0,1-1.25-4.0693,6.4914,6.4914,0,0,1,2.0532-4.0652,6.1629,6.1629,0,0,1,4.14-1.6785,5.0524,5.0524,0,0,1,3.8126,1.6883,5.3508,5.3508,0,0,1,1.2454,4.0693A6.5079,6.5079,0,0,1,98.6828,35.7451Z"/><path class="cls-1" d="M58.67,117.3408A58.67,58.67,0,1,1,79.7979,3.9189a2.0005,2.0005,0,1,1-1.4414,3.7324,54.6746,54.6746,0,1,0,6.96,98.7676,2,2,0,0,1,1.9531,3.49A58.7019,58.7019,0,0,1,58.67,117.3408Z"/></svg>