<svg id="Capa_1" data-name="Capa 1" xmlns="http://www.w3.org/2000/svg" width="120.6511" height="117.3408" viewBox="0 0 120.6511 117.3408"><defs><style>.cls-1{fill:#74b1c5;}</style></defs><title>STT_Web Assets</title><path class="cls-1" d="M70.7681,24.4815,35.828,56.8862a5.2226,5.2226,0,0,0-1.6623,3.2891L30.4236,98.0879a4.0868,4.0868,0,0,0,4.0765,4.64l16.345.02a5.1678,5.1678,0,0,0,4.9914-4.6292l2.0128-20.3931a5.1676,5.1676,0,0,1,4.9914-4.6292l12.6951.0156a4.087,4.087,0,0,1,4.0765,4.64L77.6,98.1457a4.0868,4.0868,0,0,0,4.0765,4.64l16.3223.02a5.1678,5.1678,0,0,0,4.9914-4.6292l3.7443-37.9358a4.307,4.307,0,0,0-1.0127-3.2923L77.1859,24.4662A4.4512,4.4512,0,0,0,70.7681,24.4815Z"/><path class="cls-1" d="M73.3716,5.2248,22.434,52.4662a2.9439,2.9439,0,0,0-.4026,4.0786l1.0191,1.16a2.7594,2.7594,0,0,0,3.99.0049L75.108,13.13l39.2568,44.6866a2.7594,2.7594,0,0,0,3.99.0049l1.2479-1.1573a2.9439,2.9439,0,0,0,.4026-4.0786L78.4043,5.2309A3.5125,3.5125,0,0,0,73.3716,5.2248Z"/><path class="cls-1" d="M58.67,117.3408A58.67,58.67,0,0,1,58.67,0a2,2,0,0,1,0,4,54.67,54.67,0,0,0,0,109.3408,54.1321,54.1321,0,0,0,24.09-5.5791,2,2,0,1,1,1.7656,3.59A58.1025,58.1025,0,0,1,58.67,117.3408Z"/></svg>