<svg id="Capa_1" data-name="Capa 1" xmlns="http://www.w3.org/2000/svg" width="432.5221" height="144.6932" viewBox="0 0 432.5221 144.6932"><defs><style>.cls-1{fill:#da5e52;}</style></defs><title>STT_Web Assets</title><path class="cls-1" d="M44.5875,89.5133c1.0359-3.7287.6221-8.575-1.8759-11.6789-1.16-1.4419-2.7059-3.4354-4.4094-4.2477A21.86,21.86,0,0,0,32.33,71.8309c-7.6359-1.0478-17.288,3.3621-19.6458,11.0855a17.0592,17.0592,0,0,0-1.0189,5.8077c.059,1.0614-.0841,2.1363.0066,3.1894a12.1179,12.1179,0,0,0,.9235,2.9282,8.866,8.866,0,0,0,1.24,2.5442,18.5434,18.5434,0,0,0,2.07,2.6354,29.6134,29.6134,0,0,0,4.7361,3.7463c3.215,2.1707,6.7324,4.66,8.2463,8.2214,1.5819,3.7212-1.4908,8.3131-4.6483,9.9676-3.4565,1.8112-8.4418,1.4653-11.8789-.2135a22.306,22.306,0,0,1-4.6635-2.78c-1.1607-.9929-.9883-1.441-2.4757-1.5783-1.6744-.1546-1.8224-.12-2.5738,1.2618-.8834,1.6244-2.6953,3.3828-2.6464,5.18.0662,2.4327,2.1243,3.5357,3.9712,4.8389a27.016,27.016,0,0,0,10.7064,4.3492c7.7967,1.4578,17.2164-1.882,21.6056-8.4941,4.5243-6.8157,4.0908-17.0681-2.3211-22.5623-2.9748-2.5491-6.566-4.2733-9.4506-6.8529-2.9156-2.6073-4.4373-7.3074-1.8265-10.761,2.45-3.241,7.5949-4.2694,10.8617-1.8727,1.6472,1.2085,2.0549,3.0593,2.006,5.035a4.2016,4.2016,0,0,0,.6487,2.9469c.8115,1.1,1.5437.9081,2.97.8932a14.3468,14.3468,0,0,0,3.33-.1352A5.4528,5.4528,0,0,0,44.5875,89.5133Z"/><path class="cls-1" d="M119.0992,101.67c.6114-1.4043,1.3883-2.7312,1.9-4.1558.4044-1.1262.6541-3.2493-.671-4.05-.5825-.352-2.96-.0822-3.7968-.0687-1.4818.0239-3.3932.27-4.5192,1.3968-.6947.6954-.9692,2.6-1.447,3.63-.58,1.25-1.3848,2.4006-1.94,3.6455-1.1793,2.6432-2.3525,5.2211-3.6851,7.7974-1.21,2.34-2.675,4.628-3.8766,6.9143a33.4605,33.4605,0,0,1-1.8414,3.4288c-.5219.7615-1.9561,2.8895-2.855,3.21-1.1534.4114-.64-2.3869-.6024-3.3425.0526-1.3324.2137-2.5928.3165-3.8406.22-2.6729-.097-5.316.317-7.9713a69.2281,69.2281,0,0,0,.5807-7.9085c.0275-.72.1013-1.4432.16-2.1614a22.4879,22.4879,0,0,0,.4932-2.3687c-.0624-.4667-.9445-1.2413-1.2926-1.6065-.8108-.8505-.6541-.7339-1.8147-.7513-1.2462-.0187-2.99-.38-4.1923-.0281-1.3121.3841-1.9119,1.7355-2.2149,3.1046-.6252,2.825.0395,5.62-.5686,8.3964a31.64,31.64,0,0,0-.1938,4.1515,9.05,9.05,0,0,1-1.423,3.4461c-.74,1.2554-1.7717,2.4083-2.5047,3.741a29.8821,29.8821,0,0,1-1.9611,2.8429c-1.1238,1.5805-3.811,4.5647-5.8007,4.7234-3.0862.2462-1.1947-5.08-.6434-6.6819,1.85-5.3759,3.2755-10.9975,5.45-16.1829.514-1.2258.6083-2.4206,1.0921-3.6245.2275-.5662.6326-1.0237.6034-1.5851a7.4036,7.4036,0,0,0-1.0411-2.2557c-.5707-.35-3.2869-.1424-4.05-.0788a4.0207,4.0207,0,0,0-3.2029,2.3558,34.4146,34.4146,0,0,1-1.8075,3.6113c-1.4684-2.2235-2.6939-4.5692-5.1528-5.8526a13.83,13.83,0,0,0-8.2854-1.1638A19.2193,19.2193,0,0,0,45.6,101.8577a25.3265,25.3265,0,0,0-3.19,7.6263c-.231,1.2911-.5554,2.5495-.7656,3.8465a30.5008,30.5008,0,0,0-.1308,4.34c-.1115,5.5485,2.3966,11.3042,7.4,14.0192a14.81,14.81,0,0,0,8.8634,1.4017c3.2531-.4164,5.3952-2.5952,7.89-4.399,1.7665,4.2637,7.4221,5.7967,11.4806,3.6886a25.987,25.987,0,0,0,9.3984-8.9836c.3611,3.6237.9391,8.0391,4.993,9.2488a10.5351,10.5351,0,0,0,9.8141-1.9613,36.6316,36.6316,0,0,0,6.9815-8.5914c.9333-1.4472,1.763-3.0056,2.638-4.4662a42.4928,42.4928,0,0,0,2.6549-5.0639c.763-1.8256,1.9493-3.4062,2.7514-5.1427A35.4468,35.4468,0,0,1,119.0992,101.67Zm-52.33,10.5084c-1.2408,3.8552-2.0564,7.9435-5.7244,10.3275-3.572,2.3216-7.5437,1.8978-9.1611-2.4675-2.4824-6.7,1.6551-18.7406,10.0218-18.3706a4.8013,4.8013,0,0,1,4.4124,3.6483,17.9693,17.9693,0,0,1,.5291,2.9036C66.9547,109.5338,66.4141,110.8743,66.7695,112.1788Z"/><path class="cls-1" d="M154.1734,120c-1.228-.8776-2.0453-1.7262-3.5274-1.8109-1.9707-.1127-2.4147.4436-3.8055,1.7334a16.4866,16.4866,0,0,1-7.0355,3.59,11.9456,11.9456,0,0,1-7.4695-.07,5.1074,5.1074,0,0,1-2.9314-2.4273,4.9871,4.9871,0,0,1-.6791-1.8515c.1545-.5935.7386-.3869,1.4819-.493,5.02-.7166,10.1777-1.9873,14.2358-5.0244,4.0721-3.0475,6.5327-8.5471,5.4539-13.62-1.2791-6.0141-7.8379-8.2978-13.2157-7.5691a18.4157,18.4157,0,0,0-13.0345,7.8646c-5.9532,8.326-8.3081,22.5565.9593,29.73,4.4616,3.4537,10.3973,3.5917,15.65,2.4294A21.02,21.02,0,0,0,147.85,129.02c1.01-.7368,2.1624-1.5226,3.1264-2.2788a38.9061,38.9061,0,0,0,2.7293-3.052c.7444-.72.7288-.4459.8185-1.3489A10.5857,10.5857,0,0,0,154.1734,120ZM128.5646,111.49a14.484,14.484,0,0,1,4.0662-7.6433c1.5628-1.48,5.8038-3.9914,7.7011-1.5113,1.9688,2.5736-1.4458,5.7538-3.4033,6.9146a16.3423,16.3423,0,0,1-4.1507,1.5829C131.53,111.1817,129.812,111.9056,128.5646,111.49Z"/><path class="cls-1" d="M262.9882,82.77a79.9545,79.9545,0,0,0,8.7486-.0032c1.2312-.0552,3.1184-.4273,3.917-1.5209.3219-.4407.2312-1.2519.39-1.81.182-.64.5891-1.168.7639-1.7857,1.1536-4.078-3.2533-3.8643-5.8219-3.8481-2.67.0168-5.3839.0476-8.0756.01-5.4484-.0753-10.9242-.1327-16.3468-.07-2.6678.0309-5.3495.2374-8.0231.0753-1.6672-.1011-2.76-.1469-4.08,1.1056-.9967.9455-.9628,2.43-1.3316,3.8269a5.4435,5.4435,0,0,0-.4386,2.0768,6.2248,6.2248,0,0,0,1.4906,2.1272c.4422.1674,1.6848-.2259,2.269-.2226.8649.0048,1.7123.0171,2.5652.0037,3.0917-.0487,6.2755.2912,9.363.0039-1.2194,3.3569-2.1253,6.72-3.1338,10.1626-1.0346,3.5322-2.3012,6.9815-3.2335,10.5656-.4913,1.8889-1.1824,3.6215-1.5336,5.5062a20.46,20.46,0,0,1-1.4459,4.8736,29.5272,29.5272,0,0,0-1.79,5.4334c-.5408,1.8623-1.3439,3.6466-1.82,5.5276-.2358.9325-.3,1.889-.59,2.8055-.2506.7931-1.2385,2.154-1.1724,2.9693a5.2417,5.2417,0,0,0,1.5771,2.2469c.75.4041,2.2444.0976,3.0871.0958,1.938-.0041,3.8326.0559,5.2789-1.5863,1.1656-1.3236,1.0046-4.1378,1.718-5.7663.7615-1.7387,1.0928-3.7168,1.7478-5.5191.6261-1.7229.9645-3.56,1.62-5.3122.76-2.0313,1-4.1647,1.7369-6.1678.3257-.885.5375-1.6652.7895-2.5682.2825-1.0123.9447-1.9122,1.1638-2.9586.4576-2.1854,1.0667-4.1634,1.7223-6.3033.586-1.9126,1.1207-3.8179,1.6955-5.76.6147-2.0766,1.6388-4.0295,2.1444-6.1389.2667-1.1127.1591-1.8382,1.4845-2.1592C260.5268,82.42,261.8442,82.8869,262.9882,82.77Z"/><path class="cls-1" d="M296.3175,105.2212c.6115-4.59-.3058-9.9619-5.1994-11.7783-2.0476-.76-5.3446-.0492-7.25.8624-2.2183,1.0615-3.3337,2.7744-4.9251,4.4736.3773-1.505.1032-4.0419-1.6562-4.63-.61-.2039-2.2515.2365-2.9929.2365a3.4655,3.4655,0,0,0-2.7222,1.0539c-1.6533,1.3408-1.3941,3.1182-2.0566,5.0271-.6257,1.803-1.0828,3.6221-1.6026,5.4672a94.9334,94.9334,0,0,0-2.6141,10.1407c-.28,1.7191-1.0459,3.3181-1.4051,5.0447-.3447,1.657-1.1775,3.2468-1.6277,4.922-.2555.9507-.3948,1.7866-.6835,2.7109a4.1753,4.1753,0,0,0-.3469,2.315c.8894,2.4232,2.9569,1.6466,4.8522,1.7281,1.8017.0775,3.9116-.2041,4.8106-1.974a25.0551,25.0551,0,0,0,1.7451-5.6271,42.29,42.29,0,0,1,3.2382-9.515c1.5275-3.0706,2.7617-6.4958,4.98-9.2,1.0578-1.29,2.1882-3.0215,3.74-3.6715,2.7416-1.1484,2.5188,1.2563,2.6583,3.1628.05.6814-.1175.59.1931,1.0921a5.16,5.16,0,0,0,1.6122,1.24,8.3782,8.3782,0,0,0,2.7973.2674C294.257,108.5077,295.4088,107.3409,296.3175,105.2212Z"/><path class="cls-1" d="M372.1642,102.5393c.6117-1.404,1.3887-2.7312,1.9-4.1558.4043-1.1262.6537-3.2494-.6712-4.05-.5825-.3519-2.96-.0822-3.7965-.0687-1.4819.0239-3.3933.27-4.5194,1.3968-.6947.6954-.9692,2.6-1.447,3.63-.58,1.25-1.3848,2.4006-1.94,3.6453-1.1794,2.6433-2.3525,5.2214-3.6851,7.7978-1.21,2.34-2.6749,4.6279-3.8765,6.9142a33.4663,33.4663,0,0,1-1.8413,3.429c-.5216.7612-1.9568,2.8894-2.8551,3.21-1.1535.4115-.64-2.3869-.6024-3.3425.0526-1.3323.2134-2.5926.3162-3.84.22-2.673-.0965-5.3161.3174-7.9715a69.2448,69.2448,0,0,0,.5806-7.9085c.0275-.72.1012-1.4432.1595-2.1614a22.4965,22.4965,0,0,0,.4934-2.3687c-.0624-.4667-.9445-1.2413-1.2927-1.6065-.8108-.85-.6541-.7339-1.8146-.7513-1.2462-.0187-2.99-.38-4.1925-.0281-1.3122.3841-1.9118,1.7354-2.2148,3.1046-.6251,2.825.0391,5.62-.5688,8.3964a31.63,31.63,0,0,0-.1937,4.1513,9.044,9.044,0,0,1-1.4223,3.4463c-.74,1.2553-1.7714,2.4084-2.5045,3.741a29.8916,29.8916,0,0,1-1.9611,2.8428c-1.1281,1.5864-3.8152,4.565-5.8007,4.7234-3.0868.2463-1.1946-5.08-.6434-6.6819,1.85-5.3759,3.2754-10.9975,5.45-16.1829.514-1.2258.6086-2.42,1.0922-3.6242.2275-.5663.6325-1.0239.6033-1.5853a7.4032,7.4032,0,0,0-1.041-2.2557c-.5706-.35-3.2871-.1424-4.05-.0788a4.0205,4.0205,0,0,0-3.2028,2.3558,34.3774,34.3774,0,0,1-1.8075,3.6113c-1.468-2.2236-2.694-4.5694-5.1529-5.8525a13.8306,13.8306,0,0,0-8.2852-1.1639,19.22,19.22,0,0,0-13.0271,9.4693,25.3311,25.3311,0,0,0-3.1894,7.6264c-.231,1.291-.5554,2.5494-.7656,3.8464a30.5165,30.5165,0,0,0-.1308,4.34c-.112,5.5489,2.3968,11.3039,7.4,14.0191a14.8094,14.8094,0,0,0,8.8633,1.4017c3.2523-.4162,5.3972-2.5935,7.89-4.3993,1.766,4.2636,7.4224,5.7978,11.4808,3.6891a25.9924,25.9924,0,0,0,9.3977-8.983c.3609,3.6238.9394,8.038,4.9927,9.248a10.5347,10.5347,0,0,0,9.8142-1.9613,36.6206,36.6206,0,0,0,6.9816-8.5915c.9332-1.4473,1.763-3.0056,2.638-4.4663a42.5034,42.5034,0,0,0,2.6549-5.0637c.763-1.8256,1.949-3.4061,2.7512-5.1427A35.4781,35.4781,0,0,1,372.1642,102.5393Zm-52.329,10.5084c-1.2378,3.8551-2.0576,7.9446-5.724,10.3275-3.5717,2.3214-7.5443,1.898-9.1613-2.4675-2.4818-6.7,1.6548-18.7407,10.0219-18.3706a4.8016,4.8016,0,0,1,4.4124,3.6484,17.9809,17.9809,0,0,1,.5293,2.9035C320.0209,110.4026,319.4806,111.743,319.8352,113.0477Z"/><path class="cls-1" d="M429.4325,121.1271c-1.4-.969-1.8061-1.3338-3.4968-1.2112-1.578.1145-1.8343.8269-2.944,2.0212-1.2318,1.3258-3.783,3.64-5.8809,2.77-3.44-1.4254-.0347-10.48.4976-12.81.9723-4.2568,2.4341-8.6841,3.5138-12.8786.5452-2.1181,1.2129-4.3833,1.9063-6.45.7358-2.1927,1.1811-4.5394,1.8728-6.79.6862-2.2331,1.4436-4.39,1.99-6.68.2438-1.0216.6257-2.1758.9714-3.1682.6148-1.7649,1.2342-1.9579-.4827-3.352-1.2937-1.0505-4.5551-1.15-6.1955-.4926-2.7367,1.0972-2.8365,3.4854-3.4546,6.0155-1.0688,4.3757-2.869,8.6456-4.0886,12.9936-1.3413,4.7817-2.7718,9.5476-4.1283,14.2372-.53,1.8315-.7768,4.1761-1.6213,5.9029a34.6,34.6,0,0,1-4.0307,5.8,20.46,20.46,0,0,1-10.4595,7.2675c-3.835,1.1078-10.0982,1.2883-11.4612-3.5877-.4137-1.48.1552-1.1185,1.52-1.303,1.16-.1569,2.2058-.4,3.3321-.6562a33.3607,33.3607,0,0,0,6.668-1.8346c3.7968-1.74,7.9679-5.1465,9.1075-9.3569,1.1942-4.4122.5253-9.7344-3.5927-12.4315-4.216-2.7613-9.7077-2.2607-14.1229-.484a20.4791,20.4791,0,0,0-10.162,9.4284,27.2284,27.2284,0,0,0-2.3022,5.7811,23.1515,23.1515,0,0,0-.9483,6.9144,27.6537,27.6537,0,0,0,.9656,6.8443c.5686,1.94,2.2,3.9911,3.4332,5.5731,2.923,3.75,8.2848,5.0313,12.8684,4.933a23.52,23.52,0,0,0,13.1022-4.7236,26.3362,26.3362,0,0,0,4.2861-4.3747c.7673,6.6224,6.4,10.28,12.7821,8.596a16.4771,16.4771,0,0,0,7.467-4.6808,21.9035,21.9035,0,0,0,2.7236-3.2871C430.2585,123.8325,429.9438,123.1718,429.4325,121.1271Zm-47.8963-8.6937c.943-2.7166,1.4107-5.3542,3.658-7.4448,1.7019-1.5833,5.78-4.1189,7.971-1.9535,2.7432,2.7109-1.3953,6.0252-3.4733,7.1353C387.4982,111.3424,384.09,112.8233,381.5362,112.4334Z"/><path class="cls-1" d="M210.8182,100.9632c.4721-4.3305-3.5187-7.7634-7.5851-7.828-4.1635-.0661-7.8346,3.2394-9.3779,6.8772a24.6456,24.6456,0,0,1-2.0162,4.4474c-.6891,1.0485-2.3871,3.7145-3.9838,3.47-1.5125-.2319-.2814-3.3138-.088-4.425.2043-1.1738.5315-4.1157,1.5658-4.5791.7479-.3351,2.325.122,3.1743.0189a2.5517,2.5517,0,0,0,2.5227-1.967c.3337-1.0853.5041-2.6185-.71-3.2689a12.5059,12.5059,0,0,0-3.8415-.0346c.3217-1.8585,2.0783-4.3384,1.7668-6.2123-.3044-1.8308-1.5564-1.668-2.9459-1.5389-1.6945.1574-2.6215.4719-3.168,2.1221-.402,1.2137-.6764,2.492-1.0924,3.7224a7.56,7.56,0,0,1-.5031,1.7257c-.5193.5048-1.0665-.1409-1.698.0638-2.2945.7438-3.0009,6.3876.05,5.3792-1.3781,3.2376-2.9,9.3457-.9092,12.5349,1.415,2.267,4.4277,2.7384,6.839,1.9333,2.1593-.7209,3.2129-2.352,4.8567-3.6616,1.4376,1.9563,2.7623,3.5113,5.3116,3.9242a8.7955,8.7955,0,0,0,6.2549-1.41A12.5676,12.5676,0,0,0,210.8182,100.9632Zm-5.9759,1.9576c-.6725,1.7355-1.249,4.4965-3.5392,4.9907-2.417.5216-2.8041-2.5466-2.48-4.2415.3385-1.77,1.5678-4.2809,3.5716-4.6607C204.9163,98.5314,204.7,101.3558,204.8423,102.9208Z"/><path class="cls-1" d="M253.4007,144.6932c-29.17.0013-52.99-7.8613-58.2513-14.1839-2.1139-2.54-1.2661-4.4787-.5731-5.4082,2.6415-3.544,7.6868-3.1152,11.4159-2.15a15.3768,15.3768,0,0,0-7.1018-4.1817c-3.5743-.8465-7.3515.002-11.2341,2.517-1.9966,1.2931-3.9228,2.6323-5.7863,3.9267-11.4976,7.9891-23.3864,16.25-58.4707,18.52-31.2972,2.0263-51.0131-3.7811-66.8544-8.4476-12.4468-3.6659-22.28-6.56-32.99-3.8964a1.3489,1.3489,0,0,1-.6521-2.6178c11.4212-2.8424,21.5637.1443,34.4044,3.9261,15.6364,4.6059,35.1014,10.3408,65.9183,8.3429,34.3353-2.2219,45.3954-9.9067,57.1051-18.0434,1.8807-1.3069,3.8259-2.658,5.8595-3.9755,4.5328-2.9366,9.024-3.9043,13.3447-2.8721,7.3633,1.7549,11.4706,8.67,11.6418,8.9641a1.3491,1.3491,0,0,1-1.741,1.9c-2.66-1.2529-10.1248-3.75-12.6958-.3-.1752.2352-.5856.7852.4835,2.07,4.0288,4.841,21.2179,10.9139,43.0095,12.6978,15.4447,1.2641,45.655,1.2635,74.4654-12.9415a1.3493,1.3493,0,1,1,1.1936,2.42C295.3509,141.0873,273.1476,144.6925,253.4007,144.6932Z"/><path class="cls-1" d="M208.4335,71.7956a30.3937,30.3937,0,0,0-35.0618,47.18,1.349,1.349,0,1,0,2.1093-1.6824,27.6817,27.6817,0,1,1,41.5405,1.9683,1.3491,1.3491,0,0,0,1.938,1.8774,30.4068,30.4068,0,0,0-10.5259-49.3432Z"/><path class="cls-1" d="M238.1661,115.0191l-5.4952-2.2054a1.3494,1.3494,0,0,0-1.0052,2.5045l5.4952,2.2054a1.3494,1.3494,0,1,0,1.0052-2.5045Z"/><path class="cls-1" d="M162.0624,87.2838a1.35,1.35,0,0,0,.5033-2.602l-24.638-9.887a1.3494,1.3494,0,0,0-1.0052,2.5045l24.638,9.887A1.3493,1.3493,0,0,0,162.0624,87.2838Z"/><path class="cls-1" d="M210.6791,66.2a1.3481,1.3481,0,0,0,1.7549-.75l9.582-23.88a1.3494,1.3494,0,0,0-2.5045-1.0052l-9.582,23.88A1.35,1.35,0,0,0,210.6791,66.2Z"/><path class="cls-1" d="M181.0353,65.7978a1.349,1.349,0,0,0,2.4808-1.0606L168.4779,29.54a1.349,1.349,0,1,0-2.4808,1.0606Z"/><path class="cls-1" d="M231.8482,86.51a1.3447,1.3447,0,0,0,.529-.1094l2.2759-.9723a1.3487,1.3487,0,0,0-1.0592-2.4808l-2.2759.9723a1.3494,1.3494,0,0,0,.53,2.59Z"/><path class="cls-1" d="M161.853,113.5989l-7.0458,3.0111a1.349,1.349,0,1,0,1.0606,2.4808l7.0458-3.0111a1.349,1.349,0,1,0-1.0606-2.4808Z"/><path class="cls-1" d="M241.7259,98.9961l-6.8317-.0527h-.0105a1.327,1.327,0,0,0-1.3227,1.3386,1.3723,1.3723,0,0,0,1.3649,1.36l6.78.052h.01a1.3491,1.3491,0,0,0,.01-2.6982Z"/><path class="cls-1" d="M159.3471,101.0559a1.3491,1.3491,0,0,0,.0105-2.6982l-5.9958-.0461h-.0105a1.3491,1.3491,0,0,0-.0105,2.6982l5.9958.0461Z"/><path class="cls-1" d="M197.3977,63.58h.0105a1.35,1.35,0,0,0,1.3491-1.3386L199.2289,1.36A1.3492,1.3492,0,0,0,197.89,0H197.88a1.35,1.35,0,0,0-1.3491,1.3386l-.4717,60.8823A1.3492,1.3492,0,0,0,197.3977,63.58Z"/><path class="cls-1" d="M170.6161,74.4358a1.3491,1.3491,0,0,0,.9611-2.2957l-6.281-6.38-.004-.0031L137.2044,37.23a1.349,1.349,0,0,0-1.9222,1.8932l34.3728,34.91A1.3441,1.3441,0,0,0,170.6161,74.4358Z"/><path class="cls-1" d="M224.5758,125.9667a1.349,1.349,0,1,0-1.9222,1.8932l4.62,4.6922a1.349,1.349,0,0,0,1.9222-1.8932Z"/><path class="cls-1" d="M254.7761,43.2256a1.348,1.348,0,0,0-1.9077-.0145l-29.786,29.3282a1.349,1.349,0,1,0,1.8932,1.9222l29.786-29.3282A1.3486,1.3486,0,0,0,254.7761,43.2256Z"/><path class="cls-1" d="M47.221,86.4746c1.0359-3.7287.6221-8.575-1.8759-11.6789-1.16-1.4419-2.7059-3.4354-4.4094-4.2477a21.86,21.86,0,0,0-5.9723-1.7558c-7.6359-1.0478-17.288,3.3621-19.6458,11.0855a17.0592,17.0592,0,0,0-1.0189,5.8077c.059,1.0614-.0841,2.1363.0066,3.1894a12.1179,12.1179,0,0,0,.9235,2.9282,8.866,8.866,0,0,0,1.24,2.5442,18.5434,18.5434,0,0,0,2.07,2.6354,29.6134,29.6134,0,0,0,4.7361,3.7463c3.215,2.1707,6.7324,4.66,8.2463,8.2214,1.5819,3.7212-1.4908,8.3131-4.6483,9.9676-3.4565,1.8112-8.4418,1.4653-11.8789-.2135a22.306,22.306,0,0,1-4.6635-2.78c-1.1607-.9929-.9883-1.441-2.4757-1.5783-1.6744-.1546-1.8224-.12-2.5738,1.2618-.8834,1.6244-2.6953,3.3828-2.6464,5.18.0662,2.4327,2.1243,3.5357,3.9712,4.8389a27.016,27.016,0,0,0,10.7064,4.3492c7.7967,1.4578,17.2164-1.882,21.6056-8.4941,4.5243-6.8157,4.0908-17.0681-2.3211-22.5623-2.9748-2.5491-6.566-4.2733-9.4506-6.8529C24.23,89.46,22.7087,84.76,25.3194,81.306c2.45-3.241,7.5949-4.2694,10.8617-1.8727,1.6472,1.2085,2.0549,3.0593,2.006,5.035a4.2016,4.2016,0,0,0,.6487,2.9469c.8115,1.1,1.5437.9081,2.97.8932a14.3468,14.3468,0,0,0,3.33-.1352A5.4528,5.4528,0,0,0,47.221,86.4746Z"/><path class="cls-1" d="M121.7327,98.6318c.6114-1.4043,1.3883-2.7312,1.9-4.1558.4044-1.1262.6541-3.2493-.671-4.05-.5825-.352-2.96-.0822-3.7968-.0687-1.4818.0239-3.3932.27-4.5192,1.3968-.6947.6954-.9692,2.6-1.447,3.63-.58,1.25-1.3848,2.4006-1.94,3.6455-1.1793,2.6432-2.3525,5.2211-3.6851,7.7974-1.21,2.34-2.675,4.628-3.8766,6.9143a33.46,33.46,0,0,1-1.8414,3.4288c-.5219.7615-1.9561,2.8895-2.855,3.21-1.1534.4114-.64-2.3869-.6024-3.3425.0526-1.3324.2137-2.5928.3165-3.8406.22-2.6729-.097-5.316.317-7.9713a69.2281,69.2281,0,0,0,.5807-7.9085c.0275-.72.1013-1.4432.16-2.1614a22.4879,22.4879,0,0,0,.4932-2.3687c-.0624-.4667-.9445-1.2413-1.2926-1.6065-.8108-.8505-.6541-.7339-1.8147-.7513-1.2462-.0187-2.99-.38-4.1923-.0281-1.3121.3841-1.9119,1.7355-2.2149,3.1046-.6252,2.825.0395,5.62-.5686,8.3964a31.64,31.64,0,0,0-.1938,4.1515,9.05,9.05,0,0,1-1.423,3.4461c-.74,1.2554-1.7717,2.4083-2.5047,3.741a29.8821,29.8821,0,0,1-1.9611,2.8429c-1.1238,1.5805-3.811,4.5647-5.8007,4.7234-3.0862.2462-1.1947-5.08-.6434-6.6819,1.85-5.3759,3.2755-10.9975,5.45-16.1829.514-1.2258.6083-2.4206,1.0921-3.6245.2275-.5662.6326-1.0237.6034-1.5851a7.4036,7.4036,0,0,0-1.0411-2.2557c-.5707-.35-3.2869-.1424-4.05-.0788a4.0207,4.0207,0,0,0-3.2029,2.3558,34.4146,34.4146,0,0,1-1.8075,3.6113c-1.4684-2.2235-2.6939-4.5692-5.1528-5.8526A13.83,13.83,0,0,0,61.26,89.35,19.2193,19.2193,0,0,0,48.2334,98.819a25.3265,25.3265,0,0,0-3.19,7.6263c-.231,1.2911-.5554,2.5495-.7656,3.8465a30.5008,30.5008,0,0,0-.1308,4.34c-.1115,5.5485,2.3966,11.3042,7.4,14.0192a14.81,14.81,0,0,0,8.8634,1.4017c3.2531-.4164,5.3952-2.5952,7.89-4.399,1.7665,4.2637,7.4221,5.7967,11.4806,3.6886a25.987,25.987,0,0,0,9.3984-8.9836c.3611,3.6237.9391,8.0391,4.993,9.2488a10.5351,10.5351,0,0,0,9.8141-1.9613,36.6316,36.6316,0,0,0,6.9815-8.5914c.9333-1.4472,1.763-3.0056,2.638-4.4662a42.4928,42.4928,0,0,0,2.6549-5.0639c.763-1.8256,1.9493-3.4062,2.7514-5.1427A35.4468,35.4468,0,0,1,121.7327,98.6318ZM69.4029,109.14c-1.2408,3.8552-2.0564,7.9435-5.7244,10.3275-3.572,2.3216-7.5437,1.8978-9.1611-2.4675C52.0351,110.3,56.1726,98.26,64.5393,98.63a4.8013,4.8013,0,0,1,4.4124,3.6483,17.9693,17.9693,0,0,1,.5291,2.9036C69.5882,106.4951,69.0476,107.8357,69.4029,109.14Z"/><path class="cls-1" d="M156.8068,116.961c-1.228-.8776-2.0453-1.7262-3.5274-1.8109-1.9707-.1127-2.4147.4436-3.8055,1.7334a16.4866,16.4866,0,0,1-7.0355,3.59,11.9456,11.9456,0,0,1-7.4695-.07,5.1074,5.1074,0,0,1-2.9314-2.4273,4.9871,4.9871,0,0,1-.6791-1.8515c.1545-.5935.7386-.3869,1.4819-.493,5.02-.7166,10.1777-1.9873,14.2358-5.0244,4.0721-3.0475,6.5327-8.5471,5.4539-13.62-1.2791-6.0141-7.8379-8.2978-13.2157-7.5691A18.4157,18.4157,0,0,0,126.28,97.2824c-5.9532,8.326-8.3081,22.5565.9593,29.73,4.4616,3.4537,10.3973,3.5917,15.65,2.4294a21.02,21.02,0,0,0,7.5947-3.4608c1.01-.7368,2.1624-1.5226,3.1264-2.2788a38.9061,38.9061,0,0,0,2.7293-3.052c.7444-.72.7288-.4459.8185-1.3489A10.5857,10.5857,0,0,0,156.8068,116.961Zm-25.6088-8.5094a14.484,14.484,0,0,1,4.0662-7.6433c1.5628-1.48,5.8038-3.9914,7.7011-1.5113,1.9688,2.5736-1.4458,5.7538-3.4033,6.9146a16.3423,16.3423,0,0,1-4.1507,1.5829C134.1638,108.1431,132.4455,108.8669,131.1981,108.4516Z"/><path class="cls-1" d="M265.6217,79.7318a79.9545,79.9545,0,0,0,8.7486-.0032c1.2312-.0552,3.1184-.4273,3.917-1.5209.3219-.4407.2312-1.2519.39-1.81.182-.64.5891-1.168.7639-1.7857,1.1536-4.078-3.2533-3.8643-5.8219-3.8481-2.67.0168-5.3839.0476-8.0756.01-5.4484-.0753-10.9242-.1327-16.3468-.07-2.6678.0309-5.3495.2374-8.0231.0753-1.6672-.1011-2.76-.1469-4.08,1.1056-.9967.9455-.9628,2.43-1.3316,3.8269a5.4435,5.4435,0,0,0-.4386,2.0768,6.2248,6.2248,0,0,0,1.4906,2.1272c.4422.1674,1.6848-.2259,2.269-.2226.8649.0048,1.7123.0171,2.5652.0037,3.0917-.0487,6.2755.2912,9.363.0039-1.2194,3.3569-2.1253,6.72-3.1338,10.1626-1.0346,3.5322-2.3012,6.9815-3.2335,10.5656-.4913,1.8889-1.1824,3.6215-1.5336,5.5062a20.46,20.46,0,0,1-1.4459,4.8736,29.5272,29.5272,0,0,0-1.79,5.4334c-.5408,1.8623-1.3439,3.6466-1.82,5.5276-.2358.9325-.3,1.889-.59,2.8055-.2506.7931-1.2385,2.154-1.1724,2.9693a5.2417,5.2417,0,0,0,1.5771,2.2469c.75.4041,2.2444.0976,3.0871.0958,1.938-.0041,3.8326.0559,5.2789-1.5863,1.1656-1.3236,1.0046-4.1378,1.718-5.7663.7615-1.7387,1.0928-3.7168,1.7478-5.5191.6261-1.7229.9645-3.56,1.62-5.3122.76-2.0313,1-4.1647,1.7369-6.1678.3257-.885.5375-1.6652.7895-2.5682.2825-1.0123.9447-1.9122,1.1638-2.9586.4576-2.1854,1.0667-4.1634,1.7223-6.3033.586-1.9126,1.1207-3.8179,1.6955-5.76.6147-2.0766,1.6388-4.0295,2.1444-6.1389.2667-1.1127.1591-1.8382,1.4845-2.1592C263.16,79.3811,264.4777,79.8483,265.6217,79.7318Z"/><path class="cls-1" d="M298.951,102.1825c.6115-4.59-.3058-9.9619-5.1994-11.7783-2.0476-.76-5.3446-.0492-7.25.8624-2.2183,1.0615-3.3337,2.7744-4.9251,4.4736.3773-1.505.1032-4.0419-1.6562-4.63-.61-.2039-2.2515.2365-2.9929.2365A3.4655,3.4655,0,0,0,274.2055,92.4c-1.6533,1.3408-1.3941,3.1182-2.0566,5.0271-.6257,1.803-1.0828,3.6221-1.6026,5.4672a94.9334,94.9334,0,0,0-2.6141,10.1407c-.28,1.7191-1.0459,3.3181-1.4051,5.0447-.3447,1.657-1.1775,3.2468-1.6277,4.922-.2555.9507-.3948,1.7866-.6835,2.7109a4.1753,4.1753,0,0,0-.3469,2.315c.8894,2.4232,2.9569,1.6466,4.8522,1.7281,1.8017.0775,3.9116-.2041,4.8106-1.974a25.0551,25.0551,0,0,0,1.7451-5.6271,42.29,42.29,0,0,1,3.2382-9.515c1.5275-3.0706,2.7617-6.4958,4.98-9.2,1.0578-1.29,2.1882-3.0215,3.74-3.6715,2.7416-1.1484,2.5188,1.2563,2.6583,3.1628.05.6814-.1175.59.1931,1.0921a5.16,5.16,0,0,0,1.6122,1.24,8.3782,8.3782,0,0,0,2.7973.2674C296.89,105.4691,298.0423,104.3022,298.951,102.1825Z"/><path class="cls-1" d="M374.7977,99.5006c.6117-1.404,1.3887-2.7312,1.9-4.1558.4043-1.1262.6537-3.2494-.6712-4.05-.5825-.3519-2.96-.0822-3.7965-.0687-1.4819.0239-3.3933.27-4.5194,1.3968-.6947.6954-.9692,2.6-1.447,3.63-.58,1.25-1.3848,2.4006-1.94,3.6453-1.1794,2.6433-2.3525,5.2214-3.6851,7.7978-1.21,2.34-2.6749,4.6279-3.8765,6.9142a33.4663,33.4663,0,0,1-1.8413,3.429c-.5216.7612-1.9568,2.8894-2.8551,3.21-1.1535.4115-.64-2.3869-.6024-3.3425.0526-1.3323.2134-2.5926.3162-3.84.22-2.673-.0965-5.3161.3174-7.9715a69.2447,69.2447,0,0,0,.5806-7.9085c.0275-.72.1012-1.4432.1595-2.1614a22.4965,22.4965,0,0,0,.4934-2.3687c-.0624-.4667-.9445-1.2413-1.2927-1.6065-.8108-.85-.6541-.7339-1.8146-.7513-1.2462-.0187-2.99-.38-4.1925-.0281-1.3122.3841-1.9118,1.7354-2.2148,3.1046-.6251,2.825.0391,5.62-.5688,8.3964a31.63,31.63,0,0,0-.1937,4.1513,9.044,9.044,0,0,1-1.4223,3.4463c-.74,1.2553-1.7714,2.4084-2.5045,3.741a29.8915,29.8915,0,0,1-1.9611,2.8428c-1.1281,1.5864-3.8152,4.565-5.8007,4.7234-3.0868.2463-1.1946-5.08-.6434-6.6819,1.85-5.3759,3.2754-10.9975,5.45-16.1829.514-1.2258.6086-2.42,1.0922-3.6242.2275-.5663.6325-1.0239.6033-1.5853a7.4032,7.4032,0,0,0-1.041-2.2557c-.5706-.35-3.2871-.1424-4.05-.0788a4.0205,4.0205,0,0,0-3.2028,2.3558,34.3773,34.3773,0,0,1-1.8075,3.6113c-1.468-2.2236-2.694-4.5694-5.1529-5.8525a13.8306,13.8306,0,0,0-8.2852-1.1639,19.22,19.22,0,0,0-13.0271,9.4693,25.3311,25.3311,0,0,0-3.1894,7.6264c-.231,1.291-.5554,2.5494-.7656,3.8464a30.5165,30.5165,0,0,0-.1308,4.34c-.112,5.5489,2.3968,11.3039,7.4,14.0191a14.8094,14.8094,0,0,0,8.8633,1.4017c3.2523-.4162,5.3972-2.5935,7.89-4.3993,1.766,4.2636,7.4224,5.7978,11.4808,3.6891a25.9924,25.9924,0,0,0,9.3977-8.983c.3609,3.6238.9394,8.038,4.9927,9.248a10.5347,10.5347,0,0,0,9.8142-1.9613,36.6206,36.6206,0,0,0,6.9816-8.5915c.9332-1.4473,1.763-3.0056,2.638-4.4663a42.5034,42.5034,0,0,0,2.6549-5.0637c.763-1.8256,1.949-3.4061,2.7512-5.1427A35.4781,35.4781,0,0,1,374.7977,99.5006Zm-52.329,10.5084c-1.2378,3.8551-2.0576,7.9446-5.724,10.3275-3.5717,2.3214-7.5443,1.898-9.1613-2.4675-2.4818-6.7,1.6548-18.7407,10.0219-18.3706a4.8016,4.8016,0,0,1,4.4124,3.6484,17.9809,17.9809,0,0,1,.5293,2.9035C322.6544,107.364,322.1141,108.7044,322.4687,110.009Z"/><path class="cls-1" d="M432.066,118.0885c-1.4-.969-1.8061-1.3338-3.4968-1.2112-1.578.1145-1.8343.8269-2.944,2.0212-1.2318,1.3258-3.783,3.64-5.8809,2.77-3.44-1.4254-.0347-10.48.4976-12.81.9723-4.2568,2.4341-8.6841,3.5138-12.8786.5452-2.1181,1.2129-4.3833,1.9063-6.45.7358-2.1927,1.1811-4.5394,1.8728-6.79.6862-2.2331,1.4436-4.39,1.99-6.68.2438-1.0216.6257-2.1758.9714-3.1682.6148-1.7649,1.2342-1.9579-.4827-3.352-1.2937-1.0505-4.5551-1.15-6.1955-.4926-2.7367,1.0972-2.8365,3.4854-3.4546,6.0155-1.0688,4.3757-2.869,8.6456-4.0886,12.9936-1.3413,4.7817-2.7718,9.5476-4.1283,14.2372-.53,1.8315-.7768,4.1761-1.6213,5.9029a34.6,34.6,0,0,1-4.0307,5.8,20.46,20.46,0,0,1-10.4595,7.2675c-3.835,1.1078-10.0982,1.2883-11.4612-3.5877-.4137-1.48.1552-1.1185,1.52-1.303,1.16-.1569,2.2058-.4,3.3321-.6561a33.3607,33.3607,0,0,0,6.668-1.8346c3.7968-1.74,7.9679-5.1465,9.1075-9.3569,1.1942-4.4122.5253-9.7344-3.5927-12.4315-4.216-2.7613-9.7077-2.2607-14.1229-.484a20.4791,20.4791,0,0,0-10.162,9.4284,27.2284,27.2284,0,0,0-2.3022,5.7811,23.1515,23.1515,0,0,0-.9483,6.9144,27.6537,27.6537,0,0,0,.9656,6.8443c.5686,1.94,2.2,3.9911,3.4332,5.5731,2.923,3.75,8.2848,5.0313,12.8684,4.933a23.52,23.52,0,0,0,13.1022-4.7236,26.3362,26.3362,0,0,0,4.2861-4.3747c.7673,6.6224,6.4,10.28,12.7821,8.596a16.4771,16.4771,0,0,0,7.467-4.6808,21.9035,21.9035,0,0,0,2.7236-3.2871C432.892,120.7939,432.5773,120.1332,432.066,118.0885ZM384.17,109.3948c.943-2.7166,1.4107-5.3542,3.658-7.4448,1.7019-1.5833,5.78-4.1189,7.971-1.9535,2.7432,2.7109-1.3953,6.0252-3.4733,7.1353C390.1317,108.3038,386.7237,109.7847,384.17,109.3948Z"/></svg>