<svg id="Capa_1" data-name="Capa 1" xmlns="http://www.w3.org/2000/svg" width="111.1741" height="113.2834" viewBox="0 0 111.1741 113.2834"><defs><style>.cls-1{fill:#da5e52;}</style></defs><title>STT_Web Assets</title><polygon class="cls-1" points="111.174 19.688 91.486 0 65.495 25.991 39.505 0 19.817 19.688 45.807 45.679 19.817 71.67 39.505 91.358 65.495 65.367 91.486 91.358 111.174 71.67 85.184 45.679 111.174 19.688"/><path class="cls-1" d="M93.1253,97.0149A54.6276,54.6276,0,0,1,13.1391,24.41a1.6687,1.6687,0,0,0-.2487-2.1746q-.2441-.2184-.4848-.44a1.68,1.68,0,0,0-2.5388.3163A58.6295,58.6295,0,0,0,95.8878,99.9275a1.6859,1.6859,0,0,0-.3266-2.8174q-.3216-.1565-.6433-.3128A1.6759,1.6759,0,0,0,93.1253,97.0149Z"/></svg>