<svg id="Capa_1" data-name="Capa 1" xmlns="http://www.w3.org/2000/svg" width="207" height="112" viewBox="0 0 207 112"><defs><style>.cls-1{fill:#fff;}</style></defs><title>TM_Web assets</title><path class="cls-1" d="M121.5015,48.7572a1.5354,1.5354,0,0,1-1.3919-1.7663,7.0949,7.0949,0,0,1,1.3217-1.9563c2.9463-2.9468,10.1767-5.1492,10.1767-5.1492a13.2485,13.2485,0,0,0-4.7019,1.17,2.3392,2.3392,0,0,1-1.9448.2552c-2.7639-.7416-3.353.7431-3.6852,1.9193a19.6641,19.6641,0,0,1-1.8536,2.5089c-.71.96-1.44,1.9815-.9884,3.0867.4292,1.0518,1.7242,1.4616,2.6617,1.6794,2.1271.4923,4.3607,1.5273,4.5609,2.7275.196,1.1789-.6084,2.6976-2.2074,4.1671a20.1376,20.1376,0,0,1-6.283,3.1287c.6435-2.2443.86-5.6887-.5314-10.7632a31.2348,31.2348,0,0,0-4.4676-8.6753,27.4784,27.4784,0,0,1-3.3-5.984A25.3454,25.3454,0,0,1,107.75,24.7711a54.0571,54.0571,0,0,1,1.76-11.6436,55.7225,55.7225,0,0,1,3.2418-8.81,25.4,25.4,0,0,0-8.6858,11.5471,15.8326,15.8326,0,0,1,.894-7.2934c-5.5776,6.328-5.7558,11.7608-5.7558,11.7608a15.0975,15.0975,0,0,1-.3595-6.1124c-4.6814,7.1849-4.51,12.763-4.51,12.763a24.2518,24.2518,0,0,1-.2788-8.6166,52.5054,52.5054,0,0,0-2.6,5.445l-.0288-.0123c-.1535.3656-3.7282,9.0424-2.51,17.5024a27.01,27.01,0,0,0,7.8578,15.186c-.2861.2607-.5681.5351-.8459.8309-3.4541,3.6692-4.1,6.8013-4.7239,9.8306l-.5046,2.45,1.9463-1.5717A15.1819,15.1819,0,0,1,97.78,65.028a13.0521,13.0521,0,0,1,4.36-.77,16.0614,16.0614,0,0,1,3.5039.4206c.4811.1072.9612.2256,1.426.3393.5335.1315,1.0565.2607,1.57.37l-.1064.1009c-.9119,1.4469-5.6033,1.3673-7.2656,1.3133S99.15,68.573,99.15,68.573a73.7445,73.7445,0,0,1-5.0933,8.712,4.4956,4.4956,0,0,0-1.395,3.834s.59-1.8227,1.77-2.3336a1.2954,1.2954,0,0,0,.75-1.6608,63.4649,63.4649,0,0,1,5.32-8.4159,2.9658,2.9658,0,0,1,2.4914-.7253c6.8369.4742,10.4283-2.0224,12.2541-3.8742a5.4579,5.4579,0,0,0,1.1577-1.56,21.3051,21.3051,0,0,0,8.2581-3.8288c1.207-1.1094,3.1716-3.3346,2.7639-5.7838C126.9868,50.3021,122.9463,49.0714,121.5015,48.7572Zm-15.47,14.1717a17.7982,17.7982,0,0,0-3.8922-.463,14.7272,14.7272,0,0,0-4.9435.8684,15.6146,15.6146,0,0,0-3.6946,1.8022,14.5516,14.5516,0,0,1,3.7344-6.5885c.2888-.3071.5838-.5908.8826-.8545a19.7737,19.7737,0,0,0,5.9376,3.462c.5592.2,1.0916.376,1.6042.5351l-.0074.0259c.1981.0551.3946.1116.5953.1682a23.2174,23.2174,0,0,0,4.2984.8883,18.0221,18.0221,0,0,0,2.1046.1284c.4984,0,.9355-.0228,1.3238-.0579-.08.0747-.1624.15-.2547.223a3.8315,3.8315,0,0,1-2.5428.8455,16.3885,16.3885,0,0,1-3.6784-.6344C107.0248,63.16,106.5343,63.0392,106.0317,62.9289ZM115.0534,60.9l-.021.0029c-.1593.0254-.3333.0506-.5215.0765a19.762,19.762,0,0,1-4.07-.0215,28.5153,28.5153,0,0,1-5.782-1.49,17.6258,17.6258,0,0,1-5.063-2.9109,13.6267,13.6267,0,0,1,7.3583-2.2176c.3679,0,.7321.0167,1.0822.05a8.4875,8.4875,0,0,1,6.4145,3.7976A4.3852,4.3852,0,0,1,115.0534,60.9Zm.8081-3.8505a10.3248,10.3248,0,0,0-7.65-4.4435c-.4088-.04-.8311-.06-1.2567-.06a15.4114,15.4114,0,0,0-8.75,2.7912,25.4476,25.4476,0,0,1-7.5119-14.2911,33.0768,33.0768,0,0,1,1.25-13.15l.0152.03c.1253-.4059.2054-.6271.2054-.6271,1.8258,4.2161,4.3948,5.6515,4.3948,5.6515a21.4574,21.4574,0,0,1,.6394-11.9458A9.9557,9.9557,0,0,0,100.49,27.017,33.28,33.28,0,0,1,102.05,16.51c.8579,4.29,2.0853,5.8592,2.0853,5.8592.2143-5.2967,4.1642-11.0152,4.1642-11.0152-1.6346,4.85-2.2666,12.6189-2.2666,12.6189-.0351.3213-.0744.6651-.0765.7479a33.3979,33.3979,0,0,0,1.2064,10.94,28.6109,28.6109,0,0,0,3.5049,6.4119,29.88,29.88,0,0,1,4.2376,8.1665A23.45,23.45,0,0,1,115.8615,57.05Z"/><path class="cls-1" d="M38.6207,107.9993v-7.613H29.17v7.613H27.42V95.01a6.475,6.475,0,1,1,12.95,0v12.9891Zm0-9.3642V95.01a4.7253,4.7253,0,0,0-9.4506,0v3.6249Z"/><path class="cls-1" d="M86.9145,107.9993v-7.613h-9.45v7.613h-1.749V95.01a6.475,6.475,0,1,1,12.95,0v12.9891Zm0-9.3642V95.01a4.7252,4.7252,0,0,0-9.45,0v3.6249Z"/><path class="cls-1" d="M140.51,107.9993v-7.613h-9.45v7.613h-1.7483V95.01a6.475,6.475,0,1,1,12.95,0v12.9891Zm0-9.3642V95.01a4.7252,4.7252,0,0,0-9.45,0v3.6249Z"/><path class="cls-1" d="M195.25,107.9993v-7.613h-9.45v7.613H184.05V95.01a6.4751,6.4751,0,1,1,12.95,0v12.9891Zm0-9.3642V95.01a4.7252,4.7252,0,0,0-9.45,0v3.6249Z"/><path class="cls-1" d="M156.9465,107.9993V95.1226a4.7252,4.7252,0,0,0-9.45,0v12.8767h-1.75V95.1226a6.4753,6.4753,0,1,1,12.9506,0v12.8767Z"/><path class="cls-1" d="M54.146,107.9993v-5.9221c0-.6428-.6383-1.6228-2.3918-1.7113l-.0818.01H45.6043v7.6238H43.8553V94.53a6.1936,6.1936,0,0,1,12.3847,0,6.0009,6.0009,0,0,1-2.2123,4.6552,3.3339,3.3339,0,0,1,1.8691,2.8918v5.9221ZM51.1319,98.626l.376-.0207A4.3177,4.3177,0,0,0,54.4892,94.53a4.4442,4.4442,0,0,0-8.8849,0V98.626Z"/><path class="cls-1" d="M59.3549,107.9993v-1.55l.0611-.0917c.9381-1.395,8.5752-12.9071,10.5491-15.8143h-10.31V88.7925H72.2484v1.5509l-.0605.091c-2.7319,4.0659-8.8192,13.2682-10.55,15.8151H72.42v1.75Z"/><path class="cls-1" d="M120.1267,107.9993a4.9664,4.9664,0,0,1-4.96-4.961V88.7925h1.75v14.2458a3.2137,3.2137,0,0,0,3.21,3.21h5.7054v1.7514Z"/><path class="cls-1" d="M171.6134,108.0732a9.7883,9.7883,0,0,1,0-19.5637,9.4211,9.4211,0,0,1,8.6978,5.9856l.2537.6619h-1.8772l-.0948-.2165a7.69,7.69,0,0,0-6.9795-4.68,8.0393,8.0393,0,0,0,0,16.0627,7.6875,7.6875,0,0,0,7.0041-4.7326l.0948-.2177h1.8709l-.2867.7512a9.4239,9.4239,0,0,1-8.6832,5.9494Z"/><path class="cls-1" d="M14.6957,107.9993a9.7671,9.7671,0,0,1,0-19.5035,9.3107,9.3107,0,0,1,8.586,6.2046l.18.4863H21.6511l-.0941-.22a7.5365,7.5365,0,0,0-6.8613-4.72,8.0157,8.0157,0,0,0,0,16.0017,7.24,7.24,0,0,0,5.3075-2.3412,8.1071,8.1071,0,0,0,2.0928-4.2924H13.6874V97.8637H23.7509v.0084h.1483v.3608a10.019,10.019,0,0,1-2.6839,6.894,8.8829,8.8829,0,0,1-6.52,2.8724Z"/><path class="cls-1" d="M99.3458,92.5917l.0105-.0437a4.8849,4.8849,0,0,1,1.1078-2.0808,5.994,5.994,0,0,1,4.513-1.9629c3.1771,0,5.7608,2.3145,5.7608,5.1607a5.3132,5.3132,0,0,1-2.1534,4.2271,4.9517,4.9517,0,0,1,3.0982,4.8542,5.2968,5.2968,0,0,1-5.3724,5.2044l-6.9646.0487Zm1.75,13.6452,5.2089-.0367a3.5477,3.5477,0,0,0,3.6278-3.4541c0-3.3045-3.0836-3.6952-4.4076-3.7106-.09.0063-.191.0071-.2751.0071-.1865,0-.3-.0084-.3-.0084l-3.8537.0013Zm3.8817-8.9517a3.9134,3.9134,0,0,0,4.0117-3.62c0-1.8814-1.7986-3.41-4.0117-3.41a3.9364,3.9364,0,0,0-3.8817,2.57v4.4605Z"/></svg>