<svg id="Capa_1" data-name="Capa 1" xmlns="http://www.w3.org/2000/svg" width="734" height="205" viewBox="0 0 734 205"><defs><style>.cls-1{fill:#45474c;}.cls-2{fill:#2f3239;}</style></defs><title>TM_Web assets</title><polygon class="cls-1" points="58.324 106.031 67.308 97.046 106.476 136.214 133.266 109.424 110.294 86.452 101.32 95.425 115.177 109.283 106.193 118.267 83.351 95.425 110.294 68.483 151.234 109.424 106.476 154.182 58.324 106.031"/><polygon class="cls-2" points="65.392 95.39 110.151 50.631 158.303 98.783 149.319 107.767 110.151 68.599 83.36 95.39 106.333 118.362 115.306 109.388 101.449 95.531 110.433 86.547 133.275 109.388 106.333 136.33 65.392 95.39"/><path class="cls-2" d="M49.7875,143.7307a71.89,71.89,0,0,0,5.5388,6.8926l12.6663-12.6655a53.6922,53.6922,0,0,1,75.778-75.7784l12.6662-12.6662a71.8846,71.8846,0,0,0-6.8929-5.5392V17.5226H133.3565V2.1865H83.27V17.5226H67.0825V43.974a71.9919,71.9919,0,0,0-17.295,17.2953H23.3358V77.4565H8v50.087H23.3358v16.1872Z"/><path class="cls-1" d="M193.2905,127.5435h15.3361V77.4565H193.2905V61.2693H166.8391a71.9981,71.9981,0,0,0-10.4024-11.7561L143.7705,62.1794a53.6946,53.6946,0,1,1-75.778,75.7784L55.3263,150.6232a71.9578,71.9578,0,0,0,11.7562,10.4024v26.4522H83.27v15.3358h50.0869V187.4778h16.1873V161.0256a71.9847,71.9847,0,0,0,17.2953-17.2949h26.4514Z"/><path class="cls-2" d="M244.72,84.8387V32.0719H224.4251V15.8208h60.9V32.0719h-20.31V84.8387Z"/><path class="cls-2" d="M293.443,84.8387V15.8208h60.9V68.6022H342.1511l16.2511,16.2365h-20.31L321.8558,68.6022h-8.1175V84.8387Zm40.59-32.4724V32.0719H313.7384V52.3664Z"/><path class="cls-2" d="M366.52,84.8387V15.8208h60.9v69.018H407.11V68.6022H386.8158V84.8387Zm40.59-32.4724V32.0719H386.8158V52.3664Z"/><path class="cls-2" d="M455.8334,84.8387,435.5388,64.5434V15.8208h24.3518V68.6022H472.07V15.8208h24.3682V64.5434L476.1272,84.8387Z"/><path class="cls-2" d="M504.5572,84.8387V15.8208h60.9V32.0719H528.91V44.2485h36.5467V56.4259H528.91V68.6022h36.5467V84.8387Z"/><path class="cls-2" d="M573.574,84.8387V15.8208h24.3533V68.6022h32.4873V84.8387Z"/><path class="cls-2" d="M656.665,84.4474V51.4H643.9532V41.2216h38.1421V51.4h-12.72V84.4474Z"/><path class="cls-2" d="M687.1789,84.4474V41.2216H725.32V84.4474Zm25.4222-10.1685V51.4H699.8893V74.2788Z"/><path class="cls-2" d="M224.4251,188.6631V104.2366h19.861l19.86,19.8792v.0194l2.4909,2.4552,22.3348-22.3538h19.8792v84.4265H284.0076V139.0109l-17.37,17.3875L249.25,139.0109v49.6522Z"/><path class="cls-2" d="M318.7819,188.6631V104.2366h74.4955v19.8792H348.5728v14.8951h44.7046v14.8958H348.5728v14.8966h44.7046v19.86Z"/><path class="cls-2" d="M403.2084,188.6631l39.7212-39.72h.0187l2.4738-2.4925-42.2136-42.2136h44.6874L462.7909,119.15l14.9137-14.9137h44.6859l-39.7212,39.7406h-.0187l-2.4723,2.4731,42.2121,42.2129H477.7047l-14.9137-14.8943-14.8951,14.8943Z"/><path class="cls-2" d="M532.3231,188.6631V104.2366h29.79v84.4265Z"/><path class="cls-2" d="M572.045,188.6631V104.2366h69.5307v24.8448h-24.847V119.15H601.8344v54.6185h14.8944v-9.9311h24.847v24.8254Z"/><path class="cls-2" d="M651.5038,188.6631V104.2366H726v84.4265Zm49.6507-19.86V124.1158H676.33v44.6875Z"/></svg>