<svg id="Capa_1" data-name="Capa 1" xmlns="http://www.w3.org/2000/svg" width="666" height="84" viewBox="0 0 666 84"><defs><style>.cls-1{fill:none;stroke:#a6e2d9;stroke-linecap:round;stroke-linejoin:round;stroke-width:3px;}</style></defs><title>TM_Web assets</title><polyline class="cls-1" points="184.416 59.737 169.115 75.037 153.815 59.737"/><polyline class="cls-1" points="153.815 30.403 169.115 15.103 184.416 30.403"/><circle class="cls-1" cx="169.1155" cy="45.6499" r="8.777"/><polyline class="cls-1" points="196.552 52.404 207.963 52.404 207.963 38.362 221.305 38.362 221.305 52.404 233.739 52.404 233.739 38.362 245.637 38.362 245.637 52.404"/><polyline class="cls-1" points="246.514 52.404 257.925 52.404 257.925 38.362 271.267 38.362 271.267 52.404 283.701 52.404 283.701 38.362 295.599 38.362 295.599 52.404"/><polyline class="cls-1" points="295.599 52.404 307.011 52.404 307.011 38.362 320.352 38.362 320.352 52.404 332.786 52.404 332.786 38.362 344.684 38.362 344.684 52.404"/><polyline class="cls-1" points="344.684 52.404 356.096 52.404 356.096 38.362 369.438 38.362 369.438 52.404 381.871 52.404 381.871 38.362 393.77 38.362 393.77 52.404"/><line class="cls-1" x1="196.5518" y1="13.0707" x2="398.9499" y2="13.0707"/><line class="cls-1" x1="196.5518" y1="75.0371" x2="398.9499" y2="75.0371"/><polyline class="cls-1" points="10.316 38.362 10.316 52.404 22.75 52.404 22.75 38.362 34.648 38.362 34.648 52.404"/><polyline class="cls-1" points="34.648 52.404 46.06 52.404 46.06 38.362 59.402 38.362 59.402 52.404 71.835 52.404 71.835 38.362 83.733 38.362 83.733 52.404"/><polyline class="cls-1" points="83.733 52.404 95.145 52.404 95.145 38.362 108.487 38.362 108.487 52.404 120.92 52.404 120.92 38.362 132.819 38.362 132.819 52.404"/><line class="cls-1" x1="10.2057" y1="13.0707" x2="137.9991" y2="13.0707"/><line class="cls-1" x1="8.1487" y1="75.0371" x2="137.9991" y2="75.0371"/><polyline class="cls-1" points="445.646 59.737 430.346 75.037 415.046 59.737"/><polyline class="cls-1" points="415.046 30.403 430.346 15.103 445.646 30.403"/><circle class="cls-1" cx="430.3459" cy="45.6499" r="8.777"/><polyline class="cls-1" points="457.782 52.404 469.194 52.404 469.194 38.362 482.535 38.362 482.535 52.404 494.969 52.404 494.969 38.362 506.867 38.362 506.867 52.404"/><polyline class="cls-1" points="507.744 52.404 519.156 52.404 519.156 38.362 532.497 38.362 532.497 52.404 544.931 52.404 544.931 38.362 556.829 38.362 556.829 52.404"/><polyline class="cls-1" points="556.829 52.404 568.241 52.404 568.241 38.362 581.583 38.362 581.583 52.404 594.016 52.404 594.016 38.362 605.915 38.362 605.915 52.404"/><polyline class="cls-1" points="605.915 52.404 617.326 52.404 617.326 38.362 630.668 38.362 630.668 52.404 643.102 52.404 643.102 38.362 655 38.362 655 52.404"/><line class="cls-1" x1="457.7822" y1="13.0707" x2="654.2204" y2="13.0707"/><line class="cls-1" x1="457.7822" y1="75.0371" x2="654.2204" y2="75.0371"/></svg>