<svg id="Capa_1" data-name="Capa 1" xmlns="http://www.w3.org/2000/svg" width="696" height="115" viewBox="0 0 696 115"><defs><style>.cls-1{fill:#ebeced;}.cls-2{fill:#fff;}</style></defs><title>TM_Web assets</title><path class="cls-1" d="M316.0293,81.5751a38.5315,38.5315,0,0,0,2.9654,3.691l6.7817-6.7816a28.7472,28.7472,0,0,1,40.5722-40.5722l6.7816-6.7817a38.4643,38.4643,0,0,0-3.69-2.9654V14.0025h-8.667V5.7915H333.956v8.211h-8.6666V28.1652a38.5358,38.5358,0,0,0-9.26,9.26H301.867v8.667H293.656v26.817h8.2109v8.6662Z"/><path class="cls-2" d="M392.8624,72.9089h8.211V46.0919h-8.211v-8.667h-14.163a38.5348,38.5348,0,0,0-5.5691-6.2943l-6.7816,6.7817a28.7485,28.7485,0,1,1-40.5722,40.5722l-6.7817,6.7816a38.5377,38.5377,0,0,0,6.2947,5.5691v14.1624h8.6666v8.2109h26.817v-8.2109h8.667V90.8352a38.5275,38.5275,0,0,0,9.2594-9.26h14.163Z"/><path class="cls-2" d="M332.4651,72V57.2515h-6.7036V51.8831h20.1173v5.3684h-6.7094V72Z"/><path class="cls-2" d="M348.56,72V51.8831h20.1173V72Zm13.4079-5.3633V57.2515h-6.7036v9.3856Z"/><path class="cls-2" d="M34.1952,75.3742V46.3447H21V35.7786H60.5956V46.3447H47.3908V75.3742Z"/><path class="cls-2" d="M65.8739,75.3742V35.7786h39.5955V67.4572H97.5427l7.9267,7.9169H92.2643l-7.9169-7.9169H79.0691v7.9169Zm26.39-21.1125V46.3447H79.0691v7.9169Z"/><path class="cls-2" d="M110.7478,75.3742V35.7786h39.5955V75.3742H137.1382V67.4572H123.943v7.9169Zm26.39-18.4736V46.3447H123.943V56.9006Z"/><path class="cls-2" d="M168.8169,75.3742,155.6213,62.1793V35.7786h15.8346V59.54h7.9173V35.7786h15.844V62.1793L182.0121,75.3742Z"/><path class="cls-2" d="M200.4952,75.3742V35.7786h39.5955V46.3447H216.33v5.278h23.761V59.54H216.33v5.278h23.761V75.3742Z"/><path class="cls-2" d="M245.3691,75.3742V35.7786h15.8342v29.039h21.1224V75.3742Z"/><path class="cls-2" d="M418.9625,75.3742V35.7786h10.5559L440.075,46.3447v.0095l1.3243,1.3049L453.27,35.7786H463.836V75.3742H450.6309V54.2616l-9.2316,9.2411-9.2419-9.2411V75.3742Z"/><path class="cls-2" d="M469.114,75.3742V35.7786H508.71V46.3447h-23.761v5.278H508.71V59.54h-23.761v5.278H508.71V75.3742Z"/><path class="cls-2" d="M513.9882,75.3742,532.461,56.9006h.01l1.3148-1.3243L513.9882,35.7786h21.1125l5.278,5.2878,5.2779-5.2878h21.122l-18.483,18.4831h-.0095l-1.3053,1.3147,19.7978,19.7978h-21.122l-5.2779-5.278-5.278,5.278Z"/><path class="cls-2" d="M572.0574,48.9837V35.7786h15.8338V48.9837Zm0,26.3905V51.6227h15.8338V75.3742Z"/><path class="cls-2" d="M593.17,75.3742V35.7786h36.9567V48.9837H616.9214V43.7054h-7.9177V67.4572h7.9177v-5.278h13.2051V75.3742Z"/><path class="cls-2" d="M635.4044,75.3742V35.7786H675V75.3742Zm26.3905-10.5566V46.3447H648.5992V64.8175Z"/></svg>