<svg id="Capa_1" data-name="Capa 1" xmlns="http://www.w3.org/2000/svg" width="197.4114" height="197.4117" viewBox="0 0 197.4114 197.4117"><defs><style>.cls-1{fill:#adece4;}.cls-2{fill:#80c6be;}.cls-3{fill:#f3e16c;}.cls-4{fill:#e2c72e;}</style></defs><title>TM_Web assets</title><polygon class="cls-1" points="49.517 102.18 58.357 93.34 96.897 131.88 123.258 105.519 100.654 82.915 91.824 91.744 105.459 105.38 96.619 114.22 74.144 91.744 100.654 65.234 140.939 105.519 96.897 149.56 49.517 102.18"/><polygon class="cls-2" points="56.472 91.71 100.514 47.668 147.894 95.049 139.054 103.889 100.514 65.348 74.153 91.71 96.757 114.313 105.587 105.484 91.952 91.848 100.792 83.008 123.267 105.484 96.757 131.994 56.472 91.71"/><path class="cls-3" d="M41.1178,139.2758a70.7379,70.7379,0,0,0,5.45,6.7821l12.4633-12.4625a52.8317,52.8317,0,0,1,74.5635-74.5639l12.4632-12.4632a70.7326,70.7326,0,0,0-6.7825-5.45V15.09H123.3475V0H74.0634V15.09H58.1356V41.1179A70.8381,70.8381,0,0,0,41.1178,58.136H15.09V74.0637H0V123.348H15.09v15.9278Z"/><path class="cls-4" d="M182.321,123.348h15.09V74.0637h-15.09V58.136H156.2935a70.8442,70.8442,0,0,0-10.2356-11.5677L133.5946,59.0315a52.834,52.834,0,1,1-74.5635,74.5639L46.5678,146.0579a70.8046,70.8046,0,0,0,11.5678,10.2356v26.0282H74.0634v15.09h49.2842v-15.09h15.9278V156.2935a70.8311,70.8311,0,0,0,17.0181-17.0177H182.321Z"/></svg>